<?xml version="1.0" standalone="no"?>
<!DOCTYPE svg PUBLIC "-//W3C//DTD SVG 1.1//EN"
"http://www.w3.org/Graphics/SVG/1.1/DTD/svg11.dtd"><svg width="110" height="60" viewBox="0 0 110 60" fill="none" xmlns="http://www.w3.org/2000/svg">
<path d="M43.1859 38.8978C42.3555 38.8978 41.618 38.7494 40.9733 38.4526C40.3395 38.1558 39.8424 37.6887 39.4818 37.0511C39.1322 36.4025 38.9573 35.5506 38.9573 34.4953V28.8066C38.9573 28.3889 38.7443 28.1141 38.3181 27.9822L37.9576 27.8833V27.7184H42.4975V27.8833L42.0222 28.0152C41.618 28.1141 41.4158 28.3889 41.4158 28.8396V34.924C41.4158 35.9463 41.6289 36.7048 42.055 37.1995C42.4812 37.6832 43.093 37.925 43.8907 37.925C44.7211 37.925 45.3767 37.6667 45.8575 37.15C46.3492 36.6334 46.595 35.9024 46.595 34.957V28.9056C46.595 28.6857 46.5568 28.4934 46.4803 28.3285C46.4147 28.1526 46.2727 28.0372 46.0541 27.9822L45.6444 27.8833V27.7184H47.939V27.8833L47.4965 27.9987C47.2889 28.0427 47.1523 28.1471 47.0867 28.312C47.0212 28.4769 46.9884 28.6692 46.9884 28.8891V34.924C46.9884 35.7265 46.8299 36.43 46.5131 37.0346C46.1962 37.6282 45.7537 38.0899 45.1855 38.4197C44.6173 38.7384 43.9508 38.8978 43.1859 38.8978Z" fill="white"/>
<path d="M48.1052 38.601V38.4361L48.3346 38.3702C48.7171 38.2603 48.9083 37.9909 48.9083 37.5622V32.4012C48.9083 32.1594 48.8701 31.9835 48.7936 31.8736C48.7171 31.7527 48.5696 31.6702 48.351 31.6262L48.1052 31.5603V31.3954L50.9079 30.439L51.0718 30.6039L51.2029 31.5933C51.5853 31.2525 52.0169 30.9722 52.4977 30.7523C52.9784 30.5325 53.4538 30.4226 53.9236 30.4226C54.6448 30.4226 55.1965 30.6204 55.579 31.0162C55.9723 31.4119 56.169 32.0165 56.169 32.8299V37.5787C56.169 38.0074 56.3766 38.2768 56.7918 38.3867L56.9393 38.4361V38.601H53.0713V38.4361L53.2844 38.3702C53.6668 38.2493 53.858 37.98 53.858 37.5622V32.3023C53.858 31.5988 53.5084 31.247 52.8091 31.247C52.3283 31.247 51.8038 31.4888 51.2357 31.9725V37.5787C51.2357 38.0074 51.4269 38.2768 51.8093 38.3867L51.9568 38.4361V38.601H48.1052Z" fill="white"/>
<path d="M59.5474 29.5651C59.1759 29.5651 58.859 29.4497 58.5968 29.2189C58.3454 28.977 58.2198 28.6747 58.2198 28.312C58.2198 27.9382 58.3454 27.6359 58.5968 27.4051C58.859 27.1742 59.1759 27.0588 59.5474 27.0588C59.9189 27.0588 60.2303 27.1742 60.4816 27.4051C60.7329 27.6359 60.8586 27.9382 60.8586 28.312C60.8586 28.6747 60.7329 28.977 60.4816 29.2189C60.2303 29.4497 59.9189 29.5651 59.5474 29.5651ZM57.6134 38.601V38.4361L57.8428 38.3702C58.0614 38.3042 58.2089 38.2053 58.2854 38.0734C58.3728 37.9415 58.4165 37.7656 58.4165 37.5458V32.3847C58.4165 32.1539 58.3728 31.9835 58.2854 31.8736C58.2089 31.7527 58.0614 31.6702 57.8428 31.6262L57.6134 31.5768V31.4119L60.6127 30.439L60.7766 30.6039L60.7274 32.9454V37.5622C60.7274 37.7821 60.7657 37.958 60.8422 38.0899C60.9296 38.2218 61.0771 38.3207 61.2847 38.3867L61.4486 38.4361V38.601H57.6134Z" fill="white"/>
<path d="M66.2389 38.8484C65.4959 38.8484 64.8185 38.689 64.2066 38.3702C63.6056 38.0404 63.1248 37.5677 62.7643 36.9521C62.4146 36.3256 62.2398 35.5616 62.2398 34.6602C62.2398 33.7698 62.431 33.0113 62.8134 32.3847C63.2068 31.7472 63.7258 31.2635 64.3705 30.9337C65.0261 30.5929 65.7418 30.4226 66.5176 30.4226C67.1513 30.4226 67.6867 30.527 68.1238 30.7358C68.5608 30.9447 68.8941 31.2195 69.1235 31.5603C69.353 31.8901 69.4677 32.2363 69.4677 32.5991C69.4677 32.9069 69.3749 33.1487 69.1891 33.3246C69.0033 33.4895 68.763 33.5719 68.4679 33.5719C68.1511 33.5719 67.8943 33.4565 67.6976 33.2257C67.5009 32.9948 67.3862 32.6925 67.3534 32.3188C67.3425 32.0769 67.348 31.8736 67.3698 31.7087C67.3917 31.5328 67.3917 31.3569 67.3698 31.181C67.3261 30.9942 67.2551 30.8732 67.1568 30.8183C67.0693 30.7523 66.9437 30.7194 66.7798 30.7194C66.1133 30.7194 65.5943 31.0107 65.2227 31.5933C64.8622 32.1759 64.6819 33.1047 64.6819 34.3799C64.6819 35.4901 64.884 36.3421 65.2883 36.9357C65.7035 37.5183 66.3373 37.8096 67.1895 37.8096C67.7031 37.8096 68.1183 37.7161 68.4352 37.5293C68.752 37.3424 69.058 37.0621 69.353 36.6883L69.5169 36.8202C69.2437 37.4688 68.8231 37.969 68.2549 38.3207C67.6867 38.6725 67.0147 38.8484 66.2389 38.8484Z" fill="white"/>
<path d="M74.3237 38.8484C73.4933 38.8484 72.7722 38.678 72.1603 38.3372C71.5484 37.9855 71.0731 37.4908 70.7344 36.8532C70.4066 36.2156 70.2427 35.4682 70.2427 34.6107C70.2427 33.7533 70.4175 33.0113 70.7671 32.3847C71.1277 31.7582 71.6139 31.2745 72.2258 30.9337C72.8487 30.5929 73.548 30.4226 74.3237 30.4226C75.0995 30.4226 75.7934 30.5929 76.4053 30.9337C77.0171 31.2635 77.4979 31.7417 77.8476 32.3682C78.2081 32.9948 78.3884 33.7423 78.3884 34.6107C78.3884 35.4791 78.2191 36.2321 77.8803 36.8697C77.5526 37.4963 77.0827 37.9855 76.4708 38.3372C75.8699 38.678 75.1542 38.8484 74.3237 38.8484ZM74.3237 38.5186C74.7062 38.5186 75.0121 38.4087 75.2416 38.1888C75.471 37.969 75.6349 37.5787 75.7333 37.0181C75.8425 36.4575 75.8972 35.666 75.8972 34.6437C75.8972 33.6104 75.8425 32.8134 75.7333 32.2528C75.6349 31.6922 75.471 31.302 75.2416 31.0821C75.0121 30.8623 74.7062 30.7523 74.3237 30.7523C73.9413 30.7523 73.6299 30.8623 73.3895 31.0821C73.1601 31.302 72.9907 31.6922 72.8814 32.2528C72.7831 32.8134 72.7339 33.6104 72.7339 34.6437C72.7339 35.666 72.7831 36.4575 72.8814 37.0181C72.9907 37.5787 73.1601 37.969 73.3895 38.1888C73.6299 38.4087 73.9413 38.5186 74.3237 38.5186Z" fill="white"/>
<path d="M79.1083 38.601V38.4361L79.3542 38.3702C79.5727 38.3042 79.7202 38.2053 79.7967 38.0734C79.8841 37.9415 79.9278 37.7711 79.9278 37.5622V32.4012C79.9278 32.1594 79.8841 31.9835 79.7967 31.8736C79.7202 31.7527 79.5727 31.6702 79.3542 31.6262L79.1083 31.5603V31.3954L81.9274 30.439L82.0913 30.6039L82.2388 32.022V32.1539C82.3917 31.8461 82.5884 31.5658 82.8288 31.313C83.0801 31.0491 83.3533 30.8348 83.6483 30.6699C83.9542 30.505 84.2547 30.4226 84.5497 30.4226C84.965 30.4226 85.2818 30.538 85.5004 30.7688C85.7189 30.9997 85.8282 31.291 85.8282 31.6427C85.8282 32.0165 85.7189 32.3078 85.5004 32.5166C85.2928 32.7145 85.0414 32.8134 84.7464 32.8134C84.2875 32.8134 83.8832 32.5826 83.5336 32.1209L83.5008 32.0879C83.3915 31.934 83.2659 31.8516 83.1238 31.8406C82.9818 31.8186 82.8507 31.8846 82.7305 32.0385C82.6212 32.1374 82.5283 32.2583 82.4518 32.4012C82.3863 32.5331 82.3207 32.687 82.2552 32.8629V37.4633C82.2552 37.903 82.4464 38.1778 82.8288 38.2877L83.3533 38.4361V38.601H79.1083Z" fill="white"/>
<path d="M86.3429 38.601V38.4361L86.5724 38.3702C86.9548 38.2603 87.146 37.9909 87.146 37.5622V32.4012C87.146 32.1594 87.1078 31.9835 87.0313 31.8736C86.9548 31.7527 86.8073 31.6702 86.5887 31.6262L86.3429 31.5603V31.3954L89.1456 30.439L89.3095 30.6039L89.4406 31.5933C89.823 31.2525 90.2546 30.9722 90.7354 30.7523C91.2162 30.5325 91.6915 30.4226 92.1613 30.4226C92.8825 30.4226 93.4343 30.6204 93.8167 31.0162C94.21 31.4119 94.4067 32.0165 94.4067 32.8299V37.5787C94.4067 38.0074 94.6143 38.2768 95.0295 38.3867L95.177 38.4361V38.601H91.309V38.4361L91.5221 38.3702C91.9045 38.2493 92.0957 37.98 92.0957 37.5622V32.3023C92.0957 31.5988 91.7461 31.247 91.0468 31.247C90.566 31.247 90.0415 31.4888 89.4734 31.9725V37.5787C89.4734 38.0074 89.6646 38.2768 90.047 38.3867L90.1945 38.4361V38.601H86.3429Z" fill="white"/>
<path d="M41.4978 55.0664L38.5968 45.2555C38.5203 45.0027 38.4383 44.8213 38.3509 44.7114C38.2635 44.5905 38.1105 44.4806 37.892 44.3816L37.6953 44.2992V44.1343H42.0386V44.2992L41.6944 44.4311C41.4431 44.53 41.2738 44.6509 41.1864 44.7939C41.0989 44.9368 41.0935 45.1346 41.17 45.3875L42.9565 52.2468L44.8905 46.4922L44.5135 45.3215C44.437 45.0907 44.366 44.9148 44.3004 44.7939C44.2349 44.6729 44.1256 44.574 43.9726 44.4971L43.6121 44.2992V44.1343H47.7259V44.2992L47.2178 44.4971C46.9993 44.574 46.8736 44.6894 46.8409 44.8433C46.819 44.9862 46.8463 45.1731 46.9228 45.4039L49.0043 52.4117L50.9711 45.5359C51.0476 45.272 51.0749 45.0412 51.0531 44.8433C51.0312 44.6455 50.8946 44.5026 50.6433 44.4146L50.2991 44.2992V44.1343H52.5773V44.2992L52.1512 44.4641C51.9327 44.541 51.7797 44.6619 51.6923 44.8268C51.6049 44.9917 51.5284 45.1951 51.4628 45.4369L48.7421 55.0664H47.6112L45.1527 47.3167L42.6287 55.0664H41.4978Z" fill="white"/>
<path d="M54.5056 45.9811C54.1341 45.9811 53.8172 45.8656 53.555 45.6348C53.3036 45.393 53.178 45.0907 53.178 44.7279C53.178 44.3541 53.3036 44.0519 53.555 43.821C53.8172 43.5902 54.1341 43.4747 54.5056 43.4747C54.8771 43.4747 55.1885 43.5902 55.4398 43.821C55.6911 44.0519 55.8168 44.3541 55.8168 44.7279C55.8168 45.0907 55.6911 45.393 55.4398 45.6348C55.1885 45.8656 54.8771 45.9811 54.5056 45.9811ZM52.5716 55.017V54.8521L52.801 54.7861C53.0195 54.7202 53.1671 54.6212 53.2435 54.4893C53.331 54.3574 53.3747 54.1815 53.3747 53.9617V48.8006C53.3747 48.5698 53.331 48.3994 53.2435 48.2895C53.1671 48.1686 53.0195 48.0861 52.801 48.0422L52.5716 47.9927V47.8278L55.5709 46.855L55.7348 47.0199L55.6856 49.3613V53.9782C55.6856 54.198 55.7239 54.3739 55.8004 54.5058C55.8878 54.6377 56.0353 54.7366 56.2429 54.8026L56.4068 54.8521V55.017H52.5716Z" fill="white"/>
<path d="M60.2465 55.2643C59.5472 55.2643 59.0009 55.0884 58.6075 54.7366C58.2251 54.3849 58.0339 53.8243 58.0339 53.0548V47.4156H56.903V47.2507L57.2963 47.1847C57.635 47.1078 57.9246 46.9979 58.165 46.855C58.4163 46.7121 58.6621 46.5197 58.9025 46.2778L60.2465 44.7774H60.4104L60.3612 47.0858H62.1969V47.4156H60.3448V53.3516C60.3448 53.7363 60.4268 54.0276 60.5907 54.2255C60.7655 54.4234 60.984 54.5223 61.2463 54.5223C61.4757 54.5223 61.6779 54.4673 61.8527 54.3574C62.0275 54.2365 62.2024 54.0771 62.3772 53.8792L62.5411 54.0441C62.3226 54.4179 62.0221 54.7147 61.6396 54.9345C61.2572 55.1544 60.7928 55.2643 60.2465 55.2643Z" fill="white"/>
<path d="M63.0545 55.017V54.8521L63.284 54.7861C63.6664 54.6762 63.8577 54.4069 63.8577 53.9782V48.8171C63.8577 48.5753 63.8194 48.3994 63.7429 48.2895C63.6664 48.1686 63.5189 48.0861 63.3004 48.0422L63.0545 47.9762V47.8113L65.8572 46.855L66.0211 47.0199L66.1522 48.0092C66.5347 47.6684 66.9663 47.3881 67.447 47.1683C67.9278 46.9484 68.4031 46.8385 68.873 46.8385C69.5941 46.8385 70.1459 47.0363 70.5283 47.4321C70.9217 47.8278 71.1184 48.4324 71.1184 49.2458V53.9946C71.1184 54.4234 71.326 54.6927 71.7412 54.8026L71.8887 54.8521V55.017H68.0207V54.8521L68.2337 54.7861C68.6162 54.6652 68.8074 54.3959 68.8074 53.9782V48.7182C68.8074 48.0147 68.4577 47.6629 67.7584 47.6629C67.2777 47.6629 66.7532 47.9048 66.185 48.3884V53.9946C66.185 54.4234 66.3762 54.6927 66.7587 54.8026L66.9062 54.8521V55.017H63.0545Z" fill="white"/>
<path d="M76.6438 46.8385C77.354 46.8385 77.9605 46.9869 78.4631 47.2837C78.9657 47.5695 79.3481 47.9652 79.6104 48.4709C79.8835 48.9655 80.0201 49.5317 80.0201 50.1692C80.0201 50.2901 80.0147 50.4166 80.0037 50.5485C79.9928 50.6694 79.971 50.7793 79.9382 50.8782H75.054C75.0649 52.0654 75.2725 52.9229 75.6768 53.4505C76.092 53.9672 76.7039 54.2255 77.5125 54.2255C78.0588 54.2255 78.5013 54.1375 78.84 53.9617C79.1788 53.7858 79.4956 53.5275 79.7907 53.1867L79.9546 53.3351C79.6158 53.9397 79.1624 54.4124 78.5942 54.7531C78.0369 55.0939 77.365 55.2643 76.5782 55.2643C75.8025 55.2643 75.1141 55.0994 74.5131 54.7696C73.9122 54.4289 73.4423 53.9452 73.1036 53.3186C72.7649 52.692 72.5955 51.9445 72.5955 51.0761C72.5955 50.1747 72.7922 49.4107 73.1855 48.7842C73.5789 48.1466 74.0815 47.6629 74.6934 47.3331C75.3162 47.0034 75.9664 46.8385 76.6438 46.8385ZM76.5946 47.1683C76.2778 47.1683 76.0046 47.2672 75.7751 47.4651C75.5566 47.6519 75.3818 47.9927 75.2507 48.4874C75.1305 48.971 75.0649 49.6581 75.054 50.5485H77.8567C77.9659 49.3503 77.9222 48.4874 77.7255 47.9597C77.5289 47.4321 77.1519 47.1683 76.5946 47.1683Z" fill="white"/>
<path d="M83.6724 55.2643C83.137 55.2643 82.6562 55.1983 82.2301 55.0664C81.8039 54.9455 81.4106 54.7916 81.05 54.6047L81.0664 52.6426H81.2303L81.7875 53.6319C82.0279 54.0716 82.2902 54.4014 82.5743 54.6212C82.8693 54.8301 83.2408 54.9345 83.6888 54.9345C84.2132 54.9345 84.6339 54.8191 84.9508 54.5882C85.2786 54.3464 85.4425 54.0276 85.4425 53.6319C85.4425 53.2691 85.3278 52.9723 85.0983 52.7415C84.8688 52.5106 84.4427 52.3018 83.8199 52.1149L83.1315 51.9006C82.465 51.7027 81.9405 51.3949 81.5581 50.9772C81.1757 50.5595 80.9844 50.0483 80.9844 49.4437C80.9844 48.7182 81.2685 48.1026 81.8367 47.597C82.4049 47.0913 83.2189 46.8385 84.2788 46.8385C84.7049 46.8385 85.1038 46.8879 85.4753 46.9869C85.8577 47.0748 86.2237 47.2122 86.5734 47.3991L86.475 49.1799H86.3111L85.7375 48.1576C85.5299 47.7948 85.3223 47.542 85.1147 47.3991C84.918 47.2452 84.6175 47.1683 84.2132 47.1683C83.8417 47.1683 83.4921 47.2727 83.1643 47.4815C82.8365 47.6904 82.6726 47.9872 82.6726 48.3719C82.6726 48.7457 82.8092 49.0425 83.0823 49.2623C83.3664 49.4822 83.7816 49.6856 84.328 49.8724L85.0655 50.0868C85.8522 50.3286 86.4149 50.6639 86.7537 51.0926C87.0924 51.5103 87.2618 52.016 87.2618 52.6096C87.2618 53.412 86.9449 54.0551 86.3111 54.5388C85.6883 55.0225 84.8087 55.2643 83.6724 55.2643Z" fill="white"/>
<path d="M90.8109 55.2643C90.2755 55.2643 89.7948 55.1983 89.3686 55.0664C88.9425 54.9455 88.5491 54.7916 88.1886 54.6047L88.2049 52.6426H88.3688L88.9261 53.6319C89.1665 54.0716 89.4287 54.4014 89.7128 54.6212C90.0078 54.8301 90.3793 54.9345 90.8273 54.9345C91.3518 54.9345 91.7725 54.8191 92.0893 54.5882C92.4171 54.3464 92.581 54.0276 92.581 53.6319C92.581 53.2691 92.4663 52.9723 92.2369 52.7415C92.0074 52.5106 91.5813 52.3018 90.9584 52.1149L90.2701 51.9006C89.6035 51.7027 89.0791 51.3949 88.6966 50.9772C88.3142 50.5595 88.123 50.0483 88.123 49.4437C88.123 48.7182 88.4071 48.1026 88.9753 47.597C89.5434 47.0913 90.3575 46.8385 91.4174 46.8385C91.8435 46.8385 92.2423 46.8879 92.6138 46.9869C92.9963 47.0748 93.3623 47.2122 93.7119 47.3991L93.6136 49.1799H93.4497L92.8761 48.1576C92.6684 47.7948 92.4608 47.542 92.2532 47.3991C92.0566 47.2452 91.7561 47.1683 91.3518 47.1683C90.9803 47.1683 90.6306 47.2727 90.3028 47.4815C89.9751 47.6904 89.8111 47.9872 89.8111 48.3719C89.8111 48.7457 89.9477 49.0425 90.2209 49.2623C90.505 49.4822 90.9202 49.6856 91.4665 49.8724L92.2041 50.0868C92.9908 50.3286 93.5535 50.6639 93.8922 51.0926C94.2309 51.5103 94.4003 52.016 94.4003 52.6096C94.4003 53.412 94.0834 54.0551 93.4497 54.5388C92.8269 55.0225 91.9473 55.2643 90.8109 55.2643Z" fill="white"/>
<path d="M99.2279 46.8385C99.9381 46.8385 100.545 46.9869 101.047 47.2837C101.55 47.5695 101.932 47.9652 102.194 48.4709C102.468 48.9655 102.604 49.5317 102.604 50.1692C102.604 50.2901 102.599 50.4166 102.588 50.5485C102.577 50.6694 102.555 50.7793 102.522 50.8782H97.6381C97.649 52.0654 97.8566 52.9229 98.2609 53.4505C98.6761 53.9672 99.288 54.2255 100.097 54.2255C100.643 54.2255 101.085 54.1375 101.424 53.9617C101.763 53.7858 102.08 53.5275 102.375 53.1867L102.539 53.3351C102.2 53.9397 101.746 54.4124 101.178 54.7531C100.621 55.0939 99.9491 55.2643 99.1623 55.2643C98.3866 55.2643 97.6982 55.0994 97.0972 54.7696C96.4963 54.4289 96.0264 53.9452 95.6877 53.3186C95.349 52.692 95.1796 51.9445 95.1796 51.0761C95.1796 50.1747 95.3763 49.4107 95.7696 48.7842C96.163 48.1466 96.6656 47.6629 97.2775 47.3331C97.9003 47.0034 98.5505 46.8385 99.2279 46.8385ZM99.1787 47.1683C98.8619 47.1683 98.5887 47.2672 98.3592 47.4651C98.1407 47.6519 97.9659 47.9927 97.8348 48.4874C97.7146 48.971 97.649 49.6581 97.6381 50.5485H100.441C100.55 49.3503 100.506 48.4874 100.31 47.9597C100.113 47.4321 99.736 47.1683 99.1787 47.1683Z" fill="white"/>
<path d="M106.256 55.2643C105.721 55.2643 105.24 55.1983 104.814 55.0664C104.388 54.9455 103.995 54.7916 103.634 54.6047L103.65 52.6426H103.814L104.372 53.6319C104.612 54.0716 104.874 54.4014 105.158 54.6212C105.453 54.8301 105.825 54.9345 106.273 54.9345C106.797 54.9345 107.218 54.8191 107.535 54.5882C107.863 54.3464 108.027 54.0276 108.027 53.6319C108.027 53.2691 107.912 52.9723 107.682 52.7415C107.453 52.5106 107.027 52.3018 106.404 52.1149L105.716 51.9006C105.049 51.7027 104.525 51.3949 104.142 50.9772C103.76 50.5595 103.569 50.0483 103.569 49.4437C103.569 48.7182 103.853 48.1026 104.421 47.597C104.989 47.0913 105.803 46.8385 106.863 46.8385C107.289 46.8385 107.688 46.8879 108.059 46.9869C108.442 47.0748 108.808 47.2122 109.157 47.3991L109.059 49.1799H108.895L108.322 48.1576C108.114 47.7948 107.906 47.542 107.699 47.3991C107.502 47.2452 107.202 47.1683 106.797 47.1683C106.426 47.1683 106.076 47.2727 105.748 47.4815C105.421 47.6904 105.257 47.9872 105.257 48.3719C105.257 48.7457 105.393 49.0425 105.666 49.2623C105.951 49.4822 106.366 49.6856 106.912 49.8724L107.65 50.0868C108.436 50.3286 108.999 50.6639 109.338 51.0926C109.676 51.5103 109.846 52.016 109.846 52.6096C109.846 53.412 109.529 54.0551 108.895 54.5388C108.272 55.0225 107.393 55.2643 106.256 55.2643Z" fill="white"/>
<mask id="mask0_1182_7480" style="mask-type:alpha" maskUnits="userSpaceOnUse" x="0" y="0" width="51" height="60">
<path d="M50.4538 0L0 46.7846C1.71317 54.0215 10.2286 60.9211 17.9379 59.8989L50.4538 0Z" fill="#683DC4"/>
</mask>
<g mask="url(#mask0_1182_7480)">
<path d="M50.4538 0L0 46.7846C1.71317 54.0215 10.2286 60.9211 17.9379 59.8989L50.4538 0Z" fill="#683DC4"/>
<path d="M50.4538 0L0 46.7846C1.71317 54.0215 10.2286 60.9211 17.9379 59.8989L50.4538 0Z" fill="url(#paint0_linear_1182_7480)"/>
<g filter="url(#filter0_ddiiii_1182_7480)">
<path d="M32.4704 37.9486C32.4704 43.4054 28.1092 47.829 22.7294 47.829C17.3495 47.829 12.9883 43.4054 12.9883 37.9486C12.9883 32.4917 17.3495 28.0681 22.7294 28.0681C28.1092 28.0681 32.4704 32.4917 32.4704 37.9486Z" fill="white"/>
</g>
<g filter="url(#filter1_di_1182_7480)">
<path d="M25.7274 35.5419C25.7274 38.2703 23.5468 40.4821 20.8569 40.4821C18.1669 40.4821 15.9863 38.2703 15.9863 35.5419C15.9863 32.8135 18.1669 30.6016 20.8569 30.6016C23.5468 30.6016 25.7274 32.8135 25.7274 35.5419Z" fill="#362F24"/>
<path d="M25.7274 35.5419C25.7274 38.2703 23.5468 40.4821 20.8569 40.4821C18.1669 40.4821 15.9863 38.2703 15.9863 35.5419C15.9863 32.8135 18.1669 30.6016 20.8569 30.6016C23.5468 30.6016 25.7274 32.8135 25.7274 35.5419Z" fill="url(#paint1_linear_1182_7480)"/>
</g>
<path d="M23.2296 35.5419C23.2296 37.011 22.0554 38.202 20.607 38.202C19.1586 38.202 17.9844 37.011 17.9844 35.5419C17.9844 34.0727 19.1586 32.8817 20.607 32.8817C22.0554 32.8817 23.2296 34.0727 23.2296 35.5419Z" fill="black"/>
<path d="M20.2321 33.7684C20.2321 34.538 19.673 35.1618 18.9832 35.1618C18.2935 35.1618 17.7344 34.538 17.7344 33.7684C17.7344 32.9989 18.2935 32.375 18.9832 32.375C19.673 32.375 20.2321 32.9989 20.2321 33.7684Z" fill="white"/>
</g>
<defs>
<filter id="filter0_ddiiii_1182_7480" x="-11.0117" y="-7.93192" width="87.4824" height="113.761" filterUnits="userSpaceOnUse" color-interpolation-filters="sRGB">
<feFlood flood-opacity="0" result="BackgroundImageFix"/>
<feColorMatrix in="SourceAlpha" type="matrix" values="0 0 0 0 0 0 0 0 0 0 0 0 0 0 0 0 0 0 127 0" result="hardAlpha"/>
<feOffset dx="30" dy="44"/>
<feGaussianBlur stdDeviation="7"/>
<feColorMatrix type="matrix" values="0 0 0 0 0.460677 0 0 0 0 0.384115 0 0 0 0 0.520833 0 0 0 0.25 0"/>
<feBlend mode="normal" in2="BackgroundImageFix" result="effect1_dropShadow_1182_7480"/>
<feColorMatrix in="SourceAlpha" type="matrix" values="0 0 0 0 0 0 0 0 0 0 0 0 0 0 0 0 0 0 127 0" result="hardAlpha"/>
<feOffset dx="10" dy="14"/>
<feGaussianBlur stdDeviation="17"/>
<feColorMatrix type="matrix" values="0 0 0 0 0.114569 0 0 0 0 0.0253472 0 0 0 0 0.304167 0 0 0 0.63 0"/>
<feBlend mode="normal" in2="effect1_dropShadow_1182_7480" result="effect2_dropShadow_1182_7480"/>
<feBlend mode="normal" in="SourceGraphic" in2="effect2_dropShadow_1182_7480" result="shape"/>
<feColorMatrix in="SourceAlpha" type="matrix" values="0 0 0 0 0 0 0 0 0 0 0 0 0 0 0 0 0 0 127 0" result="hardAlpha"/>
<feOffset dx="-24" dy="-36"/>
<feGaussianBlur stdDeviation="32"/>
<feComposite in2="hardAlpha" operator="arithmetic" k2="-1" k3="1"/>
<feColorMatrix type="matrix" values="0 0 0 0 0.145833 0 0 0 0 0.2025 0 0 0 0 0.5 0 0 0 0.07 0"/>
<feBlend mode="normal" in2="shape" result="effect3_innerShadow_1182_7480"/>
<feColorMatrix in="SourceAlpha" type="matrix" values="0 0 0 0 0 0 0 0 0 0 0 0 0 0 0 0 0 0 127 0" result="hardAlpha"/>
<feOffset dy="-16"/>
<feGaussianBlur stdDeviation="7"/>
<feComposite in2="hardAlpha" operator="arithmetic" k2="-1" k3="1"/>
<feColorMatrix type="matrix" values="0 0 0 0 0.0546875 0 0 0 0 0.161875 0 0 0 0 0.4375 0 0 0 0.21 0"/>
<feBlend mode="normal" in2="effect3_innerShadow_1182_7480" result="effect4_innerShadow_1182_7480"/>
<feColorMatrix in="SourceAlpha" type="matrix" values="0 0 0 0 0 0 0 0 0 0 0 0 0 0 0 0 0 0 127 0" result="hardAlpha"/>
<feOffset dx="-20" dy="-16"/>
<feGaussianBlur stdDeviation="7"/>
<feComposite in2="hardAlpha" operator="arithmetic" k2="-1" k3="1"/>
<feColorMatrix type="matrix" values="0 0 0 0 0.680062 0 0 0 0 0.304688 0 0 0 0 0.975 0 0 0 0.15 0"/>
<feBlend mode="normal" in2="effect4_innerShadow_1182_7480" result="effect5_innerShadow_1182_7480"/>
<feColorMatrix in="SourceAlpha" type="matrix" values="0 0 0 0 0 0 0 0 0 0 0 0 0 0 0 0 0 0 127 0" result="hardAlpha"/>
<feOffset dx="-8" dy="1"/>
<feGaussianBlur stdDeviation="4"/>
<feComposite in2="hardAlpha" operator="arithmetic" k2="-1" k3="1"/>
<feColorMatrix type="matrix" values="0 0 0 0 0.370742 0 0 0 0 0.85 0 0 0 0 0.145208 0 0 0 0.21 0"/>
<feBlend mode="normal" in2="effect5_innerShadow_1182_7480" result="effect6_innerShadow_1182_7480"/>
</filter>
<filter id="filter1_di_1182_7480" x="10.9863" y="24.6016" width="29.7402" height="29.8805" filterUnits="userSpaceOnUse" color-interpolation-filters="sRGB">
<feFlood flood-opacity="0" result="BackgroundImageFix"/>
<feColorMatrix in="SourceAlpha" type="matrix" values="0 0 0 0 0 0 0 0 0 0 0 0 0 0 0 0 0 0 127 0" result="hardAlpha"/>
<feOffset dx="5" dy="4"/>
<feGaussianBlur stdDeviation="5"/>
<feColorMatrix type="matrix" values="0 0 0 0 0 0 0 0 0 0 0 0 0 0 0 0 0 0 0.25 0"/>
<feBlend mode="normal" in2="BackgroundImageFix" result="effect1_dropShadow_1182_7480"/>
<feBlend mode="normal" in="SourceGraphic" in2="effect1_dropShadow_1182_7480" result="shape"/>
<feColorMatrix in="SourceAlpha" type="matrix" values="0 0 0 0 0 0 0 0 0 0 0 0 0 0 0 0 0 0 127 0" result="hardAlpha"/>
<feOffset dx="5" dy="6"/>
<feGaussianBlur stdDeviation="7"/>
<feComposite in2="hardAlpha" operator="arithmetic" k2="-1" k3="1"/>
<feColorMatrix type="matrix" values="0 0 0 0 0.595833 0 0 0 0 0.536747 0 0 0 0 0.422049 0 0 0 1 0"/>
<feBlend mode="normal" in2="shape" result="effect2_innerShadow_1182_7480"/>
</filter>
<linearGradient id="paint0_linear_1182_7480" x1="7.61802" y1="55.9211" x2="49.8472" y2="9.68342" gradientUnits="userSpaceOnUse">
<stop stop-color="#FB47FF"/>
<stop offset="0.140625" stop-color="#7536FC"/>
<stop offset="0.255208" stop-color="#215AEC"/>
<stop offset="0.40625" stop-color="#50F7C8"/>
<stop offset="0.59375" stop-color="#00EB86"/>
<stop offset="0.71875" stop-color="#FEDA00"/>
<stop offset="0.848958" stop-color="#FFC700"/>
<stop offset="1" stop-color="#FF3D00"/>
</linearGradient>
<linearGradient id="paint1_linear_1182_7480" x1="24.4312" y1="39.2471" x2="18.5424" y2="33.9121" gradientUnits="userSpaceOnUse">
<stop stop-color="#83765C"/>
<stop offset="1" stop-color="#5F523B" stop-opacity="0"/>
</linearGradient>
</defs>
</svg>
