<svg width="328" height="178" viewBox="0 0 328 178" fill="none" xmlns="http://www.w3.org/2000/svg">
<path d="M128.772 115.397C126.296 115.397 124.097 114.957 122.175 114.076C120.285 113.196 118.803 111.81 117.727 109.918C116.685 107.994 116.164 105.467 116.164 102.336V85.4596C116.164 84.2204 115.528 83.4051 114.258 83.0138L113.182 82.7203V82.2311H126.72V82.7203L125.303 83.1116C124.097 83.4051 123.494 84.2204 123.494 85.5575V103.608C123.494 106.641 124.13 108.891 125.4 110.358C126.671 111.793 128.495 112.511 130.874 112.511C133.35 112.511 135.305 111.744 136.738 110.212C138.205 108.679 138.938 106.51 138.938 103.706V85.7531C138.938 85.1009 138.824 84.5302 138.596 84.041C138.4 83.5192 137.977 83.1768 137.325 83.0138L136.103 82.7203V82.2311H142.945V82.7203L141.626 83.0627C141.007 83.1931 140.599 83.5029 140.404 83.9921C140.208 84.4813 140.111 85.052 140.111 85.7042V103.608C140.111 105.988 139.638 108.076 138.693 109.869C137.748 111.63 136.429 113 134.735 113.978C133.041 114.924 131.053 115.397 128.772 115.397Z" fill="white"/>
<path d="M143.441 114.516V114.027L144.125 113.831C145.265 113.505 145.835 112.706 145.835 111.435V96.1235C145.835 95.4061 145.721 94.8843 145.493 94.5582C145.265 94.1995 144.825 93.9549 144.174 93.8244L143.441 93.6288V93.1396L151.798 90.3024L152.287 90.7916L152.677 93.7266C153.818 92.7156 155.105 91.8841 156.538 91.2318C157.972 90.5796 159.389 90.2535 160.79 90.2535C162.941 90.2535 164.586 90.8405 165.726 92.0145C166.899 93.1885 167.486 94.9821 167.486 97.3954V111.483C167.486 112.755 168.105 113.554 169.343 113.88L169.783 114.027V114.516H158.249V114.027L158.884 113.831C160.025 113.473 160.595 112.674 160.595 111.435V95.83C160.595 93.7429 159.552 92.6993 157.467 92.6993C156.033 92.6993 154.469 93.4168 152.775 94.8517V111.483C152.775 112.755 153.345 113.554 154.486 113.88L154.926 114.027V114.516H143.441Z" fill="white"/>
<path d="M177.559 87.7098C176.452 87.7098 175.507 87.3674 174.725 86.6825C173.975 85.9651 173.601 85.0683 173.601 83.9921C173.601 82.8833 173.975 81.9865 174.725 81.3017C175.507 80.6168 176.452 80.2744 177.559 80.2744C178.667 80.2744 179.596 80.6168 180.345 81.3017C181.094 81.9865 181.469 82.8833 181.469 83.9921C181.469 85.0683 181.094 85.9651 180.345 86.6825C179.596 87.3674 178.667 87.7098 177.559 87.7098ZM171.792 114.516V114.027L172.477 113.831C173.128 113.636 173.568 113.342 173.796 112.951C174.057 112.56 174.187 112.038 174.187 111.386V96.0746C174.187 95.3898 174.057 94.8843 173.796 94.5582C173.568 94.1995 173.128 93.9549 172.477 93.8244L171.792 93.6777V93.1885L180.736 90.3024L181.225 90.7916L181.078 97.7378V111.435C181.078 112.087 181.192 112.609 181.42 113C181.681 113.391 182.121 113.685 182.74 113.88L183.228 114.027V114.516H171.792Z" fill="white"/>
<path d="M197.512 115.25C195.297 115.25 193.277 114.777 191.452 113.831C189.66 112.853 188.227 111.451 187.151 109.625C186.109 107.766 185.588 105.499 185.588 102.825C185.588 100.184 186.158 97.9335 187.298 96.0746C188.471 94.1832 190.019 92.7483 191.941 91.7699C193.896 90.759 196.03 90.2535 198.343 90.2535C200.233 90.2535 201.829 90.5633 203.132 91.1829C204.436 91.8025 205.429 92.6178 206.114 93.6288C206.798 94.6071 207.14 95.6344 207.14 96.7105C207.14 97.6236 206.863 98.3411 206.309 98.8629C205.755 99.3521 205.038 99.5966 204.159 99.5966C203.214 99.5966 202.448 99.2542 201.862 98.5694C201.275 97.8845 200.933 96.9877 200.836 95.8789C200.803 95.1615 200.819 94.5582 200.884 94.069C200.95 93.5472 200.95 93.0255 200.884 92.5037C200.754 91.9493 200.542 91.5906 200.249 91.4275C199.988 91.2318 199.614 91.134 199.125 91.134C197.138 91.134 195.59 91.9982 194.482 93.7266C193.407 95.455 192.869 98.2107 192.869 101.994C192.869 105.287 193.472 107.815 194.678 109.576C195.916 111.304 197.805 112.168 200.347 112.168C201.878 112.168 203.116 111.891 204.061 111.337C205.006 110.782 205.918 109.951 206.798 108.842L207.287 109.233C206.472 111.157 205.218 112.641 203.523 113.685C201.829 114.728 199.826 115.25 197.512 115.25Z" fill="white"/>
<path d="M221.62 115.25C219.144 115.25 216.993 114.745 215.169 113.734C213.344 112.69 211.927 111.223 210.917 109.331C209.939 107.44 209.451 105.222 209.451 102.678C209.451 100.135 209.972 97.9335 211.015 96.0746C212.09 94.2158 213.54 92.7809 215.364 91.7699C217.221 90.759 219.306 90.2535 221.62 90.2535C223.933 90.2535 226.002 90.759 227.826 91.7699C229.651 92.7483 231.085 94.1668 232.127 96.0257C233.202 97.8845 233.74 100.102 233.74 102.678C233.74 105.255 233.235 107.489 232.225 109.38C231.247 111.239 229.846 112.69 228.022 113.734C226.23 114.745 224.096 115.25 221.62 115.25ZM221.62 114.272C222.76 114.272 223.672 113.946 224.357 113.293C225.041 112.641 225.529 111.483 225.823 109.82C226.148 108.157 226.311 105.809 226.311 102.776C226.311 99.7108 226.148 97.3465 225.823 95.6833C225.529 94.0201 225.041 92.8624 224.357 92.2102C223.672 91.5579 222.76 91.2318 221.62 91.2318C220.479 91.2318 219.551 91.5579 218.834 92.2102C218.15 92.8624 217.645 94.0201 217.319 95.6833C217.026 97.3465 216.879 99.7108 216.879 102.776C216.879 105.809 217.026 108.157 217.319 109.82C217.645 111.483 218.15 112.641 218.834 113.293C219.551 113.946 220.479 114.272 221.62 114.272Z" fill="white"/>
<path d="M235.886 114.516V114.027L236.619 113.831C237.271 113.636 237.711 113.342 237.939 112.951C238.2 112.56 238.33 112.054 238.33 111.435V96.1235C238.33 95.4061 238.2 94.8843 237.939 94.5582C237.711 94.1995 237.271 93.9549 236.619 93.8244L235.886 93.6288V93.1396L244.292 90.3024L244.781 90.7916L245.221 94.9984V95.3898C245.677 94.4767 246.263 93.6451 246.98 92.895C247.73 92.1123 248.544 91.4764 249.424 90.9872C250.336 90.4981 251.232 90.2535 252.112 90.2535C253.35 90.2535 254.295 90.5959 254.946 91.2807C255.598 91.9656 255.924 92.8298 255.924 93.8733C255.924 94.9821 255.598 95.8463 254.946 96.4659C254.327 97.0529 253.578 97.3465 252.698 97.3465C251.33 97.3465 250.124 96.6616 249.082 95.2919L248.984 95.1941C248.658 94.7375 248.284 94.493 247.86 94.4603C247.436 94.3951 247.045 94.5908 246.687 95.0474C246.361 95.3409 246.084 95.6996 245.856 96.1235C245.661 96.5149 245.465 96.9714 245.27 97.4932V111.141C245.27 112.446 245.84 113.261 246.98 113.587L248.544 114.027V114.516H235.886Z" fill="white"/>
<path d="M257.459 114.516V114.027L258.143 113.831C259.283 113.505 259.853 112.706 259.853 111.435V96.1235C259.853 95.4061 259.739 94.8843 259.511 94.5582C259.283 94.1995 258.843 93.9549 258.192 93.8244L257.459 93.6288V93.1396L265.816 90.3024L266.304 90.7916L266.695 93.7266C267.836 92.7156 269.123 91.8841 270.556 91.2318C271.99 90.5796 273.407 90.2535 274.808 90.2535C276.958 90.2535 278.604 90.8405 279.744 92.0145C280.917 93.1885 281.504 94.9821 281.504 97.3954V111.483C281.504 112.755 282.123 113.554 283.361 113.88L283.8 114.027V114.516H272.267V114.027L272.902 113.831C274.042 113.473 274.613 112.674 274.613 111.435V95.83C274.613 93.7429 273.57 92.6993 271.485 92.6993C270.051 92.6993 268.487 93.4168 266.793 94.8517V111.483C266.793 112.755 267.363 113.554 268.504 113.88L268.943 114.027V114.516H257.459Z" fill="white"/>
<path d="M123.739 163.364L115.088 134.258C114.86 133.508 114.616 132.97 114.355 132.644C114.095 132.285 113.638 131.959 112.987 131.665L112.4 131.421V130.932H125.351V131.421L124.325 131.812C123.576 132.106 123.071 132.464 122.81 132.888C122.549 133.312 122.533 133.899 122.761 134.649L128.088 154.999L133.855 137.927L132.731 134.454C132.503 133.769 132.291 133.247 132.096 132.888C131.9 132.53 131.574 132.236 131.118 132.008L130.043 131.421V130.932H142.31V131.421L140.795 132.008C140.143 132.236 139.769 132.579 139.671 133.035C139.606 133.459 139.687 134.013 139.915 134.698L146.122 155.488L151.986 135.09C152.214 134.307 152.296 133.622 152.231 133.035C152.166 132.448 151.758 132.024 151.009 131.763L149.983 131.421V130.932H156.776V131.421L155.505 131.91C154.854 132.138 154.397 132.497 154.137 132.986C153.876 133.475 153.648 134.079 153.453 134.796L145.34 163.364H141.968L134.637 140.373L127.111 163.364H123.739Z" fill="white"/>
<path d="M162.526 136.41C161.418 136.41 160.473 136.068 159.691 135.383C158.942 134.666 158.567 133.769 158.567 132.693C158.567 131.584 158.942 130.687 159.691 130.002C160.473 129.317 161.418 128.975 162.526 128.975C163.633 128.975 164.562 129.317 165.311 130.002C166.061 130.687 166.435 131.584 166.435 132.693C166.435 133.769 166.061 134.666 165.311 135.383C164.562 136.068 163.633 136.41 162.526 136.41ZM156.759 163.217V162.728L157.443 162.532C158.094 162.336 158.534 162.043 158.762 161.652C159.023 161.26 159.153 160.738 159.153 160.086V144.775C159.153 144.09 159.023 143.585 158.762 143.259C158.534 142.9 158.094 142.655 157.443 142.525L156.759 142.378V141.889L165.702 139.003L166.191 139.492L166.044 146.438V160.135C166.044 160.787 166.158 161.309 166.386 161.7C166.647 162.092 167.087 162.385 167.706 162.581L168.195 162.728V163.217H156.759Z" fill="white"/>
<path d="M179.644 163.951C177.559 163.951 175.93 163.429 174.757 162.385C173.616 161.342 173.046 159.679 173.046 157.396V140.666H169.674V140.177L170.847 139.981C171.857 139.753 172.72 139.427 173.437 139.003C174.187 138.579 174.92 138.008 175.636 137.291L179.644 132.839H180.133L179.986 139.688H185.46V140.666H179.937V158.276C179.937 159.418 180.182 160.282 180.67 160.869C181.192 161.456 181.843 161.749 182.625 161.749C183.309 161.749 183.912 161.586 184.433 161.26C184.955 160.901 185.476 160.429 185.997 159.842L186.486 160.331C185.834 161.44 184.938 162.32 183.798 162.972C182.658 163.625 181.273 163.951 179.644 163.951Z" fill="white"/>
<path d="M188.017 163.217V162.728L188.701 162.532C189.842 162.206 190.412 161.407 190.412 160.135V144.824C190.412 144.107 190.298 143.585 190.07 143.259C189.842 142.9 189.402 142.655 188.75 142.525L188.017 142.329V141.84L196.374 139.003L196.863 139.492L197.254 142.427C198.394 141.416 199.681 140.585 201.115 139.932C202.548 139.28 203.965 138.954 205.366 138.954C207.517 138.954 209.162 139.541 210.302 140.715C211.475 141.889 212.062 143.683 212.062 146.096V160.184C212.062 161.456 212.681 162.255 213.919 162.581L214.359 162.728V163.217H202.825V162.728L203.46 162.532C204.601 162.173 205.171 161.374 205.171 160.135V144.531C205.171 142.443 204.128 141.4 202.043 141.4C200.61 141.4 199.046 142.117 197.352 143.552V160.184C197.352 161.456 197.922 162.255 199.062 162.581L199.502 162.728V163.217H188.017Z" fill="white"/>
<path d="M228.538 138.954C230.655 138.954 232.464 139.394 233.962 140.275C235.461 141.123 236.602 142.297 237.383 143.797C238.198 145.264 238.605 146.944 238.605 148.835C238.605 149.194 238.589 149.569 238.556 149.96C238.524 150.319 238.459 150.645 238.361 150.939H223.797C223.83 154.461 224.449 157.004 225.654 158.57C226.892 160.103 228.717 160.869 231.128 160.869C232.757 160.869 234.077 160.608 235.087 160.086C236.097 159.564 237.041 158.798 237.921 157.787L238.41 158.227C237.4 160.021 236.048 161.423 234.353 162.434C232.692 163.445 230.688 163.951 228.342 163.951C226.029 163.951 223.976 163.461 222.184 162.483C220.392 161.472 218.991 160.037 217.981 158.178C216.971 156.32 216.466 154.102 216.466 151.526C216.466 148.852 217.053 146.585 218.226 144.726C219.399 142.835 220.897 141.4 222.722 140.422C224.579 139.443 226.518 138.954 228.538 138.954ZM228.391 139.932C227.446 139.932 226.632 140.226 225.948 140.813C225.296 141.367 224.775 142.378 224.384 143.846C224.025 145.281 223.83 147.319 223.797 149.96H232.154C232.48 146.406 232.35 143.846 231.763 142.28C231.177 140.715 230.053 139.932 228.391 139.932Z" fill="white"/>
<path d="M249.496 163.951C247.899 163.951 246.466 163.755 245.195 163.364C243.924 163.005 242.751 162.548 241.676 161.994L241.725 156.173H242.214L243.875 159.108C244.592 160.412 245.374 161.391 246.221 162.043C247.101 162.662 248.209 162.972 249.544 162.972C251.108 162.972 252.363 162.63 253.308 161.945C254.285 161.228 254.774 160.282 254.774 159.108C254.774 158.032 254.432 157.151 253.747 156.466C253.063 155.782 251.793 155.162 249.935 154.608L247.883 153.972C245.895 153.385 244.332 152.471 243.191 151.232C242.051 149.993 241.481 148.477 241.481 146.683C241.481 144.531 242.328 142.704 244.022 141.204C245.716 139.704 248.144 138.954 251.304 138.954C252.575 138.954 253.764 139.101 254.872 139.394C256.012 139.655 257.103 140.063 258.146 140.617L257.853 145.9H257.364L255.653 142.867C255.034 141.791 254.415 141.041 253.796 140.617C253.21 140.161 252.314 139.932 251.108 139.932C250.001 139.932 248.958 140.242 247.981 140.862C247.003 141.481 246.514 142.362 246.514 143.503C246.514 144.612 246.922 145.493 247.736 146.145C248.583 146.797 249.821 147.4 251.451 147.955L253.65 148.591C255.996 149.308 257.673 150.303 258.683 151.575C259.693 152.814 260.199 154.314 260.199 156.075C260.199 158.456 259.254 160.363 257.364 161.798C255.507 163.233 252.884 163.951 249.496 163.951Z" fill="white"/>
<path d="M270.782 163.951C269.185 163.951 267.751 163.755 266.481 163.364C265.21 163.005 264.037 162.548 262.962 161.994L263.011 156.173H263.5L265.161 159.108C265.878 160.412 266.66 161.391 267.507 162.043C268.387 162.662 269.495 162.972 270.83 162.972C272.394 162.972 273.649 162.63 274.594 161.945C275.571 161.228 276.06 160.282 276.06 159.108C276.06 158.032 275.718 157.151 275.033 156.466C274.349 155.782 273.078 155.162 271.221 154.608L269.169 153.972C267.181 153.385 265.617 152.471 264.477 151.232C263.337 149.993 262.767 148.477 262.767 146.683C262.767 144.531 263.614 142.704 265.308 141.204C267.002 139.704 269.429 138.954 272.59 138.954C273.86 138.954 275.05 139.101 276.157 139.394C277.298 139.655 278.389 140.063 279.432 140.617L279.139 145.9H278.65L276.939 142.867C276.32 141.791 275.701 141.041 275.082 140.617C274.496 140.161 273.6 139.932 272.394 139.932C271.287 139.932 270.244 140.242 269.266 140.862C268.289 141.481 267.8 142.362 267.8 143.503C267.8 144.612 268.208 145.493 269.022 146.145C269.869 146.797 271.107 147.4 272.736 147.955L274.936 148.591C277.281 149.308 278.959 150.303 279.969 151.575C280.979 152.814 281.484 154.314 281.484 156.075C281.484 158.456 280.54 160.363 278.65 161.798C276.793 163.233 274.17 163.951 270.782 163.951Z" fill="white"/>
<path d="M295.879 138.954C297.997 138.954 299.805 139.394 301.304 140.275C302.803 141.123 303.943 142.297 304.725 143.797C305.54 145.264 305.947 146.944 305.947 148.835C305.947 149.194 305.931 149.569 305.898 149.96C305.866 150.319 305.8 150.645 305.703 150.939H291.139C291.171 154.461 291.79 157.004 292.996 158.57C294.234 160.103 296.059 160.869 298.47 160.869C300.099 160.869 301.418 160.608 302.428 160.086C303.438 159.564 304.383 158.798 305.263 157.787L305.751 158.227C304.741 160.021 303.389 161.423 301.695 162.434C300.033 163.445 298.03 163.951 295.684 163.951C293.371 163.951 291.318 163.461 289.526 162.483C287.734 161.472 286.333 160.037 285.323 158.178C284.313 156.32 283.808 154.102 283.808 151.526C283.808 148.852 284.395 146.585 285.567 144.726C286.74 142.835 288.239 141.4 290.064 140.422C291.921 139.443 293.859 138.954 295.879 138.954ZM295.733 139.932C294.788 139.932 293.973 140.226 293.289 140.813C292.638 141.367 292.116 142.378 291.725 143.846C291.367 145.281 291.171 147.319 291.139 149.96H299.496C299.822 146.406 299.691 143.846 299.105 142.28C298.518 140.715 297.394 139.932 295.733 139.932Z" fill="white"/>
<path d="M316.837 163.951C315.241 163.951 313.807 163.755 312.537 163.364C311.266 163.005 310.093 162.548 309.018 161.994L309.067 156.173H309.555L311.217 159.108C311.934 160.412 312.716 161.391 313.563 162.043C314.443 162.662 315.55 162.972 316.886 162.972C318.45 162.972 319.704 162.63 320.649 161.945C321.627 161.228 322.115 160.282 322.115 159.108C322.115 158.032 321.773 157.151 321.089 156.466C320.405 155.782 319.134 155.162 317.277 154.608L315.225 153.972C313.237 153.385 311.673 152.471 310.533 151.232C309.393 149.993 308.822 148.477 308.822 146.683C308.822 144.531 309.669 142.704 311.364 141.204C313.058 139.704 315.485 138.954 318.646 138.954C319.916 138.954 321.105 139.101 322.213 139.394C323.354 139.655 324.445 140.063 325.488 140.617L325.194 145.9H324.706L322.995 142.867C322.376 141.791 321.757 141.041 321.138 140.617C320.552 140.161 319.656 139.932 318.45 139.932C317.342 139.932 316.3 140.242 315.322 140.862C314.345 141.481 313.856 142.362 313.856 143.503C313.856 144.612 314.263 145.493 315.078 146.145C315.925 146.797 317.163 147.4 318.792 147.955L320.991 148.591C323.337 149.308 325.015 150.303 326.025 151.575C327.035 152.814 327.54 154.314 327.54 156.075C327.54 158.456 326.595 160.363 324.706 161.798C322.849 163.233 320.226 163.951 316.837 163.951Z" fill="white"/>
<mask id="mask0_1491:10272" style="mask-type:alpha" maskUnits="userSpaceOnUse" x="0" y="0" width="151" height="178">
<path d="M150.444 0L0 138.794C5.10835 160.264 30.4999 180.733 53.4875 177.7L150.444 0Z" fill="#683DC4"/>
</mask>
<g mask="url(#mask0_1491:10272)">
<path d="M150.444 0L0 138.794C5.10835 160.264 30.4999 180.733 53.4875 177.7L150.444 0Z" fill="#683DC4"/>
<path d="M150.444 0L0 138.794C5.10835 160.264 30.4999 180.733 53.4875 177.7L150.444 0Z" fill="url(#paint0_linear_1491:10272)"/>
<g filter="url(#filter0_ddiiii_1491:10272)">
<path d="M96.8207 112.581C96.8207 128.769 83.8164 141.893 67.7746 141.893C51.7329 141.893 38.7285 128.769 38.7285 112.581C38.7285 96.392 51.7329 83.2686 67.7746 83.2686C83.8164 83.2686 96.8207 96.392 96.8207 112.581Z" fill="white"/>
</g>
<g filter="url(#filter1_di_1491:10272)">
<path d="M76.7121 105.441C76.7121 113.535 70.2099 120.097 62.1891 120.097C54.1682 120.097 47.666 113.535 47.666 105.441C47.666 97.3464 54.1682 90.7847 62.1891 90.7847C70.2099 90.7847 76.7121 97.3464 76.7121 105.441Z" fill="#362F24"/>
<path d="M76.7121 105.441C76.7121 113.535 70.2099 120.097 62.1891 120.097C54.1682 120.097 47.666 113.535 47.666 105.441C47.666 97.3464 54.1682 90.7847 62.1891 90.7847C70.2099 90.7847 76.7121 97.3464 76.7121 105.441Z" fill="url(#paint1_linear_1491:10272)"/>
</g>
<path d="M69.2633 105.441C69.2633 109.8 65.7621 113.333 61.4431 113.333C57.1242 113.333 53.623 109.8 53.623 105.441C53.623 101.083 57.1242 97.5493 61.4431 97.5493C65.7621 97.5493 69.2633 101.083 69.2633 105.441Z" fill="black"/>
<path d="M60.3266 100.18C60.3266 102.463 58.6594 104.313 56.6028 104.313C54.5461 104.313 52.8789 102.463 52.8789 100.18C52.8789 97.8966 54.5461 96.0459 56.6028 96.0459C58.6594 96.0459 60.3266 97.8966 60.3266 100.18Z" fill="white"/>
</g>
<defs>
<filter id="filter0_ddiiii_1491:10272" x="14.7285" y="47.2686" width="126.092" height="152.624" filterUnits="userSpaceOnUse" color-interpolation-filters="sRGB">
<feFlood flood-opacity="0" result="BackgroundImageFix"/>
<feColorMatrix in="SourceAlpha" type="matrix" values="0 0 0 0 0 0 0 0 0 0 0 0 0 0 0 0 0 0 127 0" result="hardAlpha"/>
<feOffset dx="30" dy="44"/>
<feGaussianBlur stdDeviation="7"/>
<feColorMatrix type="matrix" values="0 0 0 0 0.460677 0 0 0 0 0.384115 0 0 0 0 0.520833 0 0 0 0.25 0"/>
<feBlend mode="normal" in2="BackgroundImageFix" result="effect1_dropShadow_1491:10272"/>
<feColorMatrix in="SourceAlpha" type="matrix" values="0 0 0 0 0 0 0 0 0 0 0 0 0 0 0 0 0 0 127 0" result="hardAlpha"/>
<feOffset dx="10" dy="14"/>
<feGaussianBlur stdDeviation="17"/>
<feColorMatrix type="matrix" values="0 0 0 0 0.114569 0 0 0 0 0.0253472 0 0 0 0 0.304167 0 0 0 0.63 0"/>
<feBlend mode="normal" in2="effect1_dropShadow_1491:10272" result="effect2_dropShadow_1491:10272"/>
<feBlend mode="normal" in="SourceGraphic" in2="effect2_dropShadow_1491:10272" result="shape"/>
<feColorMatrix in="SourceAlpha" type="matrix" values="0 0 0 0 0 0 0 0 0 0 0 0 0 0 0 0 0 0 127 0" result="hardAlpha"/>
<feOffset dx="-24" dy="-36"/>
<feGaussianBlur stdDeviation="32"/>
<feComposite in2="hardAlpha" operator="arithmetic" k2="-1" k3="1"/>
<feColorMatrix type="matrix" values="0 0 0 0 0.145833 0 0 0 0 0.2025 0 0 0 0 0.5 0 0 0 0.07 0"/>
<feBlend mode="normal" in2="shape" result="effect3_innerShadow_1491:10272"/>
<feColorMatrix in="SourceAlpha" type="matrix" values="0 0 0 0 0 0 0 0 0 0 0 0 0 0 0 0 0 0 127 0" result="hardAlpha"/>
<feOffset dy="-16"/>
<feGaussianBlur stdDeviation="7"/>
<feComposite in2="hardAlpha" operator="arithmetic" k2="-1" k3="1"/>
<feColorMatrix type="matrix" values="0 0 0 0 0.0546875 0 0 0 0 0.161875 0 0 0 0 0.4375 0 0 0 0.21 0"/>
<feBlend mode="normal" in2="effect3_innerShadow_1491:10272" result="effect4_innerShadow_1491:10272"/>
<feColorMatrix in="SourceAlpha" type="matrix" values="0 0 0 0 0 0 0 0 0 0 0 0 0 0 0 0 0 0 127 0" result="hardAlpha"/>
<feOffset dx="-20" dy="-16"/>
<feGaussianBlur stdDeviation="7"/>
<feComposite in2="hardAlpha" operator="arithmetic" k2="-1" k3="1"/>
<feColorMatrix type="matrix" values="0 0 0 0 0.680062 0 0 0 0 0.304688 0 0 0 0 0.975 0 0 0 0.15 0"/>
<feBlend mode="normal" in2="effect4_innerShadow_1491:10272" result="effect5_innerShadow_1491:10272"/>
<feColorMatrix in="SourceAlpha" type="matrix" values="0 0 0 0 0 0 0 0 0 0 0 0 0 0 0 0 0 0 127 0" result="hardAlpha"/>
<feOffset dx="-8" dy="1"/>
<feGaussianBlur stdDeviation="4"/>
<feComposite in2="hardAlpha" operator="arithmetic" k2="-1" k3="1"/>
<feColorMatrix type="matrix" values="0 0 0 0 0.370742 0 0 0 0 0.85 0 0 0 0 0.145208 0 0 0 0.21 0"/>
<feBlend mode="normal" in2="effect5_innerShadow_1491:10272" result="effect6_innerShadow_1491:10272"/>
</filter>
<filter id="filter1_di_1491:10272" x="42.666" y="84.7847" width="49.0469" height="49.312" filterUnits="userSpaceOnUse" color-interpolation-filters="sRGB">
<feFlood flood-opacity="0" result="BackgroundImageFix"/>
<feColorMatrix in="SourceAlpha" type="matrix" values="0 0 0 0 0 0 0 0 0 0 0 0 0 0 0 0 0 0 127 0" result="hardAlpha"/>
<feOffset dx="5" dy="4"/>
<feGaussianBlur stdDeviation="5"/>
<feColorMatrix type="matrix" values="0 0 0 0 0 0 0 0 0 0 0 0 0 0 0 0 0 0 0.25 0"/>
<feBlend mode="normal" in2="BackgroundImageFix" result="effect1_dropShadow_1491:10272"/>
<feBlend mode="normal" in="SourceGraphic" in2="effect1_dropShadow_1491:10272" result="shape"/>
<feColorMatrix in="SourceAlpha" type="matrix" values="0 0 0 0 0 0 0 0 0 0 0 0 0 0 0 0 0 0 127 0" result="hardAlpha"/>
<feOffset dx="5" dy="6"/>
<feGaussianBlur stdDeviation="7"/>
<feComposite in2="hardAlpha" operator="arithmetic" k2="-1" k3="1"/>
<feColorMatrix type="matrix" values="0 0 0 0 0.595833 0 0 0 0 0.536747 0 0 0 0 0.422049 0 0 0 1 0"/>
<feBlend mode="normal" in2="shape" result="effect2_innerShadow_1491:10272"/>
</filter>
<linearGradient id="paint0_linear_1491:10272" x1="22.7156" y1="165.899" x2="147.936" y2="28.0922" gradientUnits="userSpaceOnUse">
<stop stop-color="#FB47FF"/>
<stop offset="0.140625" stop-color="#7536FC"/>
<stop offset="0.255208" stop-color="#215AEC"/>
<stop offset="0.40625" stop-color="#50F7C8"/>
<stop offset="0.59375" stop-color="#00EB86"/>
<stop offset="0.71875" stop-color="#FEDA00"/>
<stop offset="0.848958" stop-color="#FFC700"/>
<stop offset="1" stop-color="#FF3D00"/>
</linearGradient>
<linearGradient id="paint1_linear_1491:10272" x1="72.8471" y1="116.433" x2="55.3686" y2="100.517" gradientUnits="userSpaceOnUse">
<stop stop-color="#83765C"/>
<stop offset="1" stop-color="#5F523B" stop-opacity="0"/>
</linearGradient>
</defs>
</svg>
