<?xml version="1.0" standalone="no"?>
<!DOCTYPE svg PUBLIC "-//W3C//DTD SVG 1.1//EN"
"http://www.w3.org/Graphics/SVG/1.1/DTD/svg11.dtd">
<svg width="188" height="102" viewBox="0 0 188 102" fill="none" xmlns="http://www.w3.org/2000/svg">
<path d="M73.6824 66.1263C72.2655 66.1263 71.0071 65.8741 69.9072 65.3695C68.826 64.8649 67.9777 64.0707 67.3625 62.9868C66.766 61.8843 66.4677 60.436 66.4677 58.642V48.9713C66.4677 48.2612 66.1041 47.794 65.3771 47.5697L64.7619 47.4016V47.1212H72.5079V47.4016L71.6969 47.6258C71.0071 47.794 70.6623 48.2612 70.6623 49.0274V59.3708C70.6623 61.1088 71.0258 62.3982 71.7529 63.2391C72.4799 64.0614 73.5239 64.4725 74.8848 64.4725C76.3016 64.4725 77.4202 64.0333 78.2405 63.155C79.0794 62.2767 79.4989 61.034 79.4989 59.4269V49.1395C79.4989 48.7657 79.4336 48.4387 79.3031 48.1584C79.1912 47.8594 78.9489 47.6632 78.576 47.5697L77.8769 47.4016V47.1212H81.7919V47.4016L81.0369 47.5978C80.6827 47.6725 80.4496 47.8501 80.3378 48.1304C80.2259 48.4107 80.17 48.7377 80.17 49.1115V59.3708C80.17 60.735 79.8997 61.931 79.359 62.9588C78.8184 63.9679 78.0634 64.7528 77.094 65.3134C76.1245 65.8554 74.9873 66.1263 73.6824 66.1263Z" fill="white"/>
<path d="M82.0755 65.6218V65.3415L82.467 65.2293C83.1194 65.0425 83.4457 64.5846 83.4457 63.8558V55.0821C83.4457 54.671 83.3804 54.372 83.2499 54.1851C83.1194 53.9795 82.8678 53.8394 82.4949 53.7646L82.0755 53.6525V53.3722L86.8573 51.7464L87.1369 52.0267L87.3606 53.7086C88.0131 53.1292 88.7495 52.6527 89.5698 52.279C90.3901 51.9052 91.201 51.7183 92.0026 51.7183C93.2331 51.7183 94.1745 52.0547 94.827 52.7275C95.4981 53.4002 95.8337 54.428 95.8337 55.8109V63.8838C95.8337 64.6126 96.1879 65.0705 96.8963 65.2574L97.148 65.3415V65.6218H90.5485V65.3415L90.9121 65.2293C91.5645 65.0238 91.8908 64.5659 91.8908 63.8558V54.9139C91.8908 53.7179 91.2942 53.1199 90.1011 53.1199C89.2808 53.1199 88.386 53.531 87.4166 54.3533V63.8838C87.4166 64.6126 87.7428 65.0705 88.3953 65.2574L88.647 65.3415V65.6218H82.0755Z" fill="white"/>
<path d="M101.598 50.2607C100.964 50.2607 100.423 50.0645 99.9759 49.6721C99.5471 49.261 99.3327 48.747 99.3327 48.1304C99.3327 47.495 99.5471 46.9811 99.9759 46.5887C100.423 46.1962 100.964 46 101.598 46C102.232 46 102.763 46.1962 103.192 46.5887C103.62 46.9811 103.835 47.495 103.835 48.1304C103.835 48.747 103.62 49.261 103.192 49.6721C102.763 50.0645 102.232 50.2607 101.598 50.2607ZM98.298 65.6218V65.3415L98.6895 65.2293C99.0624 65.1172 99.314 64.949 99.4445 64.7248C99.5937 64.5005 99.6682 64.2015 99.6682 63.8278V55.054C99.6682 54.6616 99.5937 54.372 99.4445 54.1851C99.314 53.9795 99.0624 53.8394 98.6895 53.7646L98.298 53.6805V53.4002L103.415 51.7464L103.695 52.0267L103.611 56.0071V63.8558C103.611 64.2296 103.676 64.5286 103.807 64.7528C103.956 64.9771 104.208 65.1452 104.562 65.2574L104.842 65.3415V65.6218H98.298Z" fill="white"/>
<path d="M113.015 66.0422C111.747 66.0422 110.591 65.7713 109.547 65.2293C108.522 64.6687 107.702 63.8652 107.086 62.8187C106.49 61.7535 106.191 60.4547 106.191 58.9223C106.191 57.4087 106.518 56.1192 107.17 55.054C107.841 53.9702 108.727 53.1479 109.827 52.5873C110.945 52.008 112.166 51.7183 113.49 51.7183C114.571 51.7183 115.485 51.8959 116.231 52.2509C116.976 52.606 117.545 53.0732 117.936 53.6525C118.328 54.2131 118.524 54.8018 118.524 55.4185C118.524 55.9417 118.365 56.3528 118.048 56.6518C117.731 56.9321 117.321 57.0723 116.818 57.0723C116.277 57.0723 115.839 56.8761 115.503 56.4836C115.168 56.0912 114.972 55.5773 114.916 54.9419C114.898 54.5308 114.907 54.1851 114.944 53.9048C114.981 53.6058 114.981 53.3068 114.944 53.0078C114.87 52.6901 114.748 52.4845 114.581 52.3911C114.432 52.279 114.217 52.2229 113.937 52.2229C112.8 52.2229 111.915 52.7181 111.281 53.7086C110.666 54.699 110.358 56.2781 110.358 58.4458C110.358 60.3332 110.703 61.7815 111.393 62.7906C112.101 63.7811 113.182 64.2763 114.637 64.2763C115.513 64.2763 116.221 64.1174 116.762 63.7997C117.302 63.4821 117.824 63.0055 118.328 62.3702L118.607 62.5944C118.141 63.697 117.424 64.5472 116.454 65.1452C115.485 65.7432 114.338 66.0422 113.015 66.0422Z" fill="white"/>
<path d="M126.809 66.0422C125.392 66.0422 124.161 65.7526 123.118 65.1733C122.074 64.5753 121.263 63.7343 120.685 62.6505C120.125 61.5666 119.846 60.2959 119.846 58.8382C119.846 57.3806 120.144 56.1192 120.741 55.054C121.356 53.9889 122.185 53.1666 123.229 52.5873C124.292 52.008 125.485 51.7183 126.809 51.7183C128.132 51.7183 129.316 52.008 130.36 52.5873C131.404 53.1479 132.224 53.9608 132.821 55.026C133.436 56.0912 133.744 57.3619 133.744 58.8382C133.744 60.3145 133.455 61.5946 132.877 62.6785C132.318 63.7437 131.516 64.5753 130.472 65.1733C129.447 65.7526 128.226 66.0422 126.809 66.0422ZM126.809 65.4816C127.461 65.4816 127.983 65.2947 128.375 64.921C128.766 64.5472 129.046 63.8838 129.214 62.9308C129.4 61.9777 129.493 60.6322 129.493 58.8943C129.493 57.1377 129.4 55.7829 129.214 54.8298C129.046 53.8767 128.766 53.2133 128.375 52.8396C127.983 52.4658 127.461 52.279 126.809 52.279C126.156 52.279 125.625 52.4658 125.215 52.8396C124.823 53.2133 124.534 53.8767 124.348 54.8298C124.18 55.7829 124.096 57.1377 124.096 58.8943C124.096 60.6322 124.18 61.9777 124.348 62.9308C124.534 63.8838 124.823 64.5472 125.215 64.921C125.625 65.2947 126.156 65.4816 126.809 65.4816Z" fill="white"/>
<path d="M134.972 65.6218V65.3415L135.391 65.2293C135.764 65.1172 136.016 64.949 136.146 64.7248C136.296 64.5005 136.37 64.2109 136.37 63.8558V55.0821C136.37 54.671 136.296 54.372 136.146 54.1851C136.016 53.9795 135.764 53.8394 135.391 53.7646L134.972 53.6525V53.3722L139.782 51.7464L140.061 52.0267L140.313 54.4374V54.6616C140.574 54.1384 140.91 53.6618 141.32 53.232C141.749 52.7835 142.215 52.4191 142.718 52.1388C143.24 51.8585 143.753 51.7183 144.256 51.7183C144.964 51.7183 145.505 51.9146 145.878 52.307C146.251 52.6994 146.437 53.1946 146.437 53.7926C146.437 54.428 146.251 54.9232 145.878 55.2783C145.524 55.6147 145.095 55.7829 144.592 55.7829C143.809 55.7829 143.119 55.3904 142.522 54.6055L142.466 54.5495C142.28 54.2879 142.066 54.1477 141.823 54.129C141.581 54.0916 141.357 54.2038 141.152 54.4654C140.966 54.6336 140.807 54.8391 140.677 55.0821C140.565 55.3063 140.453 55.5679 140.341 55.8669V63.6876C140.341 64.4351 140.667 64.9023 141.32 65.0892L142.215 65.3415V65.6218H134.972Z" fill="white"/>
<path d="M147.315 65.6218V65.3415L147.707 65.2293C148.359 65.0425 148.686 64.5846 148.686 63.8558V55.0821C148.686 54.671 148.62 54.372 148.49 54.1851C148.359 53.9795 148.108 53.8394 147.735 53.7646L147.315 53.6525V53.3722L152.097 51.7464L152.377 52.0267L152.601 53.7086C153.253 53.1292 153.99 52.6527 154.81 52.279C155.63 51.9052 156.441 51.7183 157.243 51.7183C158.473 51.7183 159.415 52.0547 160.067 52.7275C160.738 53.4002 161.074 54.428 161.074 55.8109V63.8838C161.074 64.6126 161.428 65.0705 162.136 65.2574L162.388 65.3415V65.6218H155.789V65.3415L156.152 65.2293C156.805 65.0238 157.131 64.5659 157.131 63.8558V54.9139C157.131 53.7179 156.534 53.1199 155.341 53.1199C154.521 53.1199 153.626 53.531 152.657 54.3533V63.8838C152.657 64.6126 152.983 65.0705 153.635 65.2574L153.887 65.3415V65.6218H147.315Z" fill="white"/>
<path d="M70.8021 93.6129L65.8525 76.9344C65.722 76.5046 65.5821 76.1963 65.433 76.0094C65.2839 75.8038 65.0229 75.617 64.65 75.4488L64.3145 75.3086V75.0283H71.7249V75.3086L71.1376 75.5329C70.7089 75.7011 70.4199 75.9066 70.2708 76.1496C70.1216 76.3925 70.1123 76.7289 70.2428 77.1587L73.2909 88.8196L76.5906 79.0368L75.9474 77.0466C75.8169 76.6541 75.6958 76.3551 75.5839 76.1496C75.472 75.944 75.2856 75.7758 75.0246 75.645L74.4094 75.3086V75.0283H81.4284V75.3086L80.5615 75.645C80.1886 75.7758 79.9742 75.972 79.9183 76.2337C79.881 76.4766 79.9276 76.7943 80.0581 77.1867L83.6095 89.0999L86.9652 77.411C87.0957 76.9625 87.1423 76.57 87.105 76.2337C87.0677 75.8973 86.8347 75.6543 86.4059 75.5048L85.8187 75.3086V75.0283H89.7057V75.3086L88.9786 75.5889C88.6058 75.7197 88.3448 75.9253 88.1956 76.2056C88.0465 76.4859 87.916 76.8316 87.8041 77.2428L83.1621 93.6129H81.2326L77.038 80.4383L72.7316 93.6129H70.8021Z" fill="white"/>
<path d="M92.9956 78.1678C92.3617 78.1678 91.8211 77.9716 91.3737 77.5791C90.9449 77.168 90.7305 76.6541 90.7305 76.0374C90.7305 75.4021 90.9449 74.8882 91.3737 74.4957C91.8211 74.1033 92.3617 73.9071 92.9956 73.9071C93.6294 73.9071 94.1607 74.1033 94.5895 74.4957C95.0183 74.8882 95.2327 75.4021 95.2327 76.0374C95.2327 76.6541 95.0183 77.168 94.5895 77.5791C94.1607 77.9716 93.6294 78.1678 92.9956 78.1678ZM89.6958 93.5288V93.2485L90.0873 93.1364C90.4602 93.0243 90.7119 92.8561 90.8424 92.6318C90.9915 92.4076 91.0661 92.1086 91.0661 91.7348V82.9611C91.0661 82.5687 90.9915 82.279 90.8424 82.0922C90.7119 81.8866 90.4602 81.7464 90.0873 81.6717L89.6958 81.5876V81.3073L94.8132 79.6534L95.0929 79.9338L95.009 83.9142V91.7629C95.009 92.1366 95.0742 92.4356 95.2047 92.6599C95.3539 92.8841 95.6055 93.0523 95.9598 93.1644L96.2394 93.2485V93.5288H89.6958Z" fill="white"/>
<path d="M102.791 93.9493C101.597 93.9493 100.665 93.6503 99.9942 93.0523C99.3417 92.4543 99.0155 91.5013 99.0155 90.1931V80.6065H97.086V80.3262L97.7571 80.2141C98.335 80.0833 98.829 79.8964 99.2392 79.6534C99.668 79.4105 100.087 79.0835 100.498 78.6724L102.791 76.1215H103.07L102.986 80.0459H106.118V80.6065H102.958V90.6977C102.958 91.3518 103.098 91.847 103.378 92.1833C103.676 92.5197 104.049 92.6879 104.496 92.6879C104.888 92.6879 105.233 92.5945 105.531 92.4076C105.829 92.202 106.128 91.9311 106.426 91.5947L106.706 91.875C106.333 92.5104 105.82 93.0149 105.168 93.3887C104.515 93.7624 103.723 93.9493 102.791 93.9493Z" fill="white"/>
<path d="M107.582 93.5288V93.2485L107.973 93.1364C108.626 92.9495 108.952 92.4917 108.952 91.7629V82.9891C108.952 82.578 108.887 82.279 108.756 82.0922C108.626 81.8866 108.374 81.7464 108.001 81.6717L107.582 81.5596V81.2793L112.363 79.6534L112.643 79.9338L112.867 81.6156C113.519 81.0363 114.256 80.5598 115.076 80.186C115.896 79.8123 116.707 79.6254 117.509 79.6254C118.739 79.6254 119.681 79.9618 120.333 80.6345C121.004 81.3073 121.34 82.3351 121.34 83.718V91.7909C121.34 92.5197 121.694 92.9776 122.402 93.1644L122.654 93.2485V93.5288H116.055V93.2485L116.418 93.1364C117.071 92.9308 117.397 92.473 117.397 91.7629V82.821C117.397 81.625 116.8 81.027 115.607 81.027C114.787 81.027 113.892 81.4381 112.923 82.2603V91.7909C112.923 92.5197 113.249 92.9776 113.901 93.1644L114.153 93.2485V93.5288H107.582Z" fill="white"/>
<path d="M130.767 79.6254C131.979 79.6254 133.014 79.8777 133.871 80.3823C134.729 80.8681 135.381 81.5409 135.829 82.4005C136.295 83.2414 136.528 84.2038 136.528 85.2877C136.528 85.4933 136.518 85.7082 136.5 85.9324C136.481 86.138 136.444 86.3248 136.388 86.493H128.055C128.073 88.5113 128.428 89.9689 129.117 90.8659C129.826 91.7442 130.87 92.1833 132.249 92.1833C133.181 92.1833 133.936 92.0338 134.514 91.7348C135.092 91.4359 135.633 90.9967 136.136 90.4174L136.416 90.6697C135.838 91.6975 135.064 92.501 134.095 93.0803C133.144 93.6597 131.998 93.9493 130.655 93.9493C129.332 93.9493 128.157 93.669 127.132 93.1084C126.107 92.5291 125.305 91.7068 124.727 90.6416C124.149 89.5765 123.86 88.3057 123.86 86.8294C123.86 85.297 124.196 83.9983 124.867 82.9331C125.538 81.8492 126.395 81.027 127.439 80.4663C128.502 79.9057 129.611 79.6254 130.767 79.6254ZM130.683 80.186C130.143 80.186 129.677 80.3542 129.285 80.6906C128.912 81.0083 128.614 81.5876 128.39 82.4285C128.185 83.2508 128.073 84.4187 128.055 85.9324H132.836C133.023 83.8955 132.948 82.4285 132.613 81.5315C132.277 80.6345 131.634 80.186 130.683 80.186Z" fill="white"/>
<path d="M142.759 93.9493C141.846 93.9493 141.025 93.8372 140.298 93.6129C139.571 93.4074 138.9 93.1458 138.285 92.8281L138.313 89.4924H138.592L139.543 91.1742C139.953 91.9217 140.401 92.4823 140.886 92.8561C141.389 93.2112 142.023 93.3887 142.787 93.3887C143.682 93.3887 144.4 93.1925 144.94 92.8C145.5 92.3889 145.779 91.847 145.779 91.1742C145.779 90.5575 145.583 90.053 145.192 89.6605C144.8 89.2681 144.073 88.9131 143.011 88.5954L141.836 88.231C140.699 87.8946 139.804 87.3713 139.152 86.6612C138.499 85.9511 138.173 85.0821 138.173 84.0543C138.173 82.821 138.658 81.7745 139.627 80.9148C140.597 80.0552 141.985 79.6254 143.794 79.6254C144.521 79.6254 145.201 79.7095 145.835 79.8777C146.488 80.0272 147.112 80.2608 147.709 80.5785L147.541 83.6058H147.261L146.283 81.8679C145.928 81.2512 145.574 80.8214 145.22 80.5785C144.884 80.3168 144.372 80.186 143.682 80.186C143.048 80.186 142.451 80.3636 141.892 80.7186C141.333 81.0737 141.053 81.5783 141.053 82.2323C141.053 82.8677 141.286 83.3722 141.752 83.746C142.237 84.1197 142.946 84.4655 143.878 84.7831L145.136 85.1475C146.478 85.5587 147.438 86.1286 148.016 86.8574C148.594 87.5676 148.883 88.4272 148.883 89.4363C148.883 90.8005 148.343 91.8937 147.261 92.7159C146.199 93.5382 144.698 93.9493 142.759 93.9493Z" fill="white"/>
<path d="M154.939 93.9493C154.025 93.9493 153.205 93.8372 152.478 93.6129C151.751 93.4074 151.08 93.1458 150.464 92.8281L150.492 89.4924H150.772L151.723 91.1742C152.133 91.9217 152.58 92.4823 153.065 92.8561C153.568 93.2112 154.202 93.3887 154.967 93.3887C155.861 93.3887 156.579 93.1925 157.12 92.8C157.679 92.3889 157.959 91.847 157.959 91.1742C157.959 90.5575 157.763 90.053 157.372 89.6605C156.98 89.2681 156.253 88.9131 155.19 88.5954L154.016 88.231C152.879 87.8946 151.984 87.3713 151.331 86.6612C150.679 85.9511 150.353 85.0821 150.353 84.0543C150.353 82.821 150.837 81.7745 151.807 80.9148C152.776 80.0552 154.165 79.6254 155.973 79.6254C156.7 79.6254 157.381 79.7095 158.015 79.8777C158.667 80.0272 159.292 80.2608 159.888 80.5785L159.72 83.6058H159.441L158.462 81.8679C158.108 81.2512 157.754 80.8214 157.399 80.5785C157.064 80.3168 156.551 80.186 155.861 80.186C155.228 80.186 154.631 80.3636 154.072 80.7186C153.513 81.0737 153.233 81.5783 153.233 82.2323C153.233 82.8677 153.466 83.3722 153.932 83.746C154.417 84.1197 155.125 84.4655 156.057 84.7831L157.316 85.1475C158.658 85.5587 159.618 86.1286 160.196 86.8574C160.774 87.5676 161.063 88.4272 161.063 89.4363C161.063 90.8005 160.522 91.8937 159.441 92.7159C158.378 93.5382 156.878 93.9493 154.939 93.9493Z" fill="white"/>
<path d="M169.299 79.6254C170.511 79.6254 171.546 79.8777 172.403 80.3823C173.261 80.8681 173.913 81.5409 174.361 82.4005C174.827 83.2414 175.06 84.2038 175.06 85.2877C175.06 85.4933 175.051 85.7082 175.032 85.9324C175.013 86.138 174.976 86.3248 174.92 86.493H166.587C166.606 88.5113 166.96 89.9689 167.65 90.8659C168.358 91.7442 169.402 92.1833 170.782 92.1833C171.714 92.1833 172.469 92.0338 173.047 91.7348C173.625 91.4359 174.165 90.9967 174.669 90.4174L174.948 90.6697C174.37 91.6975 173.597 92.501 172.627 93.0803C171.676 93.6597 170.53 93.9493 169.188 93.9493C167.864 93.9493 166.689 93.669 165.664 93.1084C164.639 92.5291 163.837 91.7068 163.259 90.6416C162.681 89.5765 162.392 88.3057 162.392 86.8294C162.392 85.297 162.728 83.9983 163.399 82.9331C164.07 81.8492 164.928 81.027 165.972 80.4663C167.034 79.9057 168.144 79.6254 169.299 79.6254ZM169.216 80.186C168.675 80.186 168.209 80.3542 167.817 80.6906C167.445 81.0083 167.146 81.5876 166.923 82.4285C166.717 83.2508 166.606 84.4187 166.587 85.9324H171.369C171.555 83.8955 171.481 82.4285 171.145 81.5315C170.809 80.6345 170.166 80.186 169.216 80.186Z" fill="white"/>
<path d="M181.291 93.9493C180.378 93.9493 179.558 93.8372 178.831 93.6129C178.103 93.4074 177.432 93.1458 176.817 92.8281L176.845 89.4924H177.125L178.076 91.1742C178.486 91.9217 178.933 92.4823 179.418 92.8561C179.921 93.2112 180.555 93.3887 181.319 93.3887C182.214 93.3887 182.932 93.1925 183.473 92.8C184.032 92.3889 184.311 91.847 184.311 91.1742C184.311 90.5575 184.116 90.053 183.724 89.6605C183.333 89.2681 182.606 88.9131 181.543 88.5954L180.369 88.231C179.231 87.8946 178.337 87.3713 177.684 86.6612C177.032 85.9511 176.705 85.0821 176.705 84.0543C176.705 82.821 177.19 81.7745 178.159 80.9148C179.129 80.0552 180.518 79.6254 182.326 79.6254C183.053 79.6254 183.734 79.7095 184.367 79.8777C185.02 80.0272 185.644 80.2608 186.241 80.5785L186.073 83.6058H185.794L184.815 81.8679C184.461 81.2512 184.106 80.8214 183.752 80.5785C183.417 80.3168 182.904 80.186 182.214 80.186C181.58 80.186 180.984 80.3636 180.424 80.7186C179.865 81.0737 179.586 81.5783 179.586 82.2323C179.586 82.8677 179.819 83.3722 180.285 83.746C180.769 84.1197 181.478 84.4655 182.41 84.7831L183.668 85.1475C185.011 85.5587 185.971 86.1286 186.549 86.8574C187.127 87.5676 187.415 88.4272 187.415 89.4363C187.415 90.8005 186.875 91.8937 185.794 92.7159C184.731 93.5382 183.23 93.9493 181.291 93.9493Z" fill="white"/>
<mask id="mask0_2213_9439" style="mask-type:alpha" maskUnits="userSpaceOnUse" x="0" y="0" width="87" height="102">
<path d="M86.0827 0L0 79.5338C2.92295 91.8365 17.4517 103.566 30.605 101.828L86.0827 0Z" fill="#683DC4"/>
</mask>
<g mask="url(#mask0_2213_9439)">
<path d="M86.0827 0L0 79.5338C2.92295 91.8365 17.4517 103.566 30.605 101.828L86.0827 0Z" fill="#683DC4"/>
<path d="M86.0827 0L0 79.5338C2.92295 91.8365 17.4517 103.566 30.605 101.828L86.0827 0Z" fill="url(#paint0_linear_2213_9439)"/>
<g filter="url(#filter0_ddiiii_2213_9439)">
<path d="M55.4 64.5125C55.4 73.7891 47.959 81.3093 38.7801 81.3093C29.6011 81.3093 22.1602 73.7891 22.1602 64.5125C22.1602 55.2359 29.6011 47.7157 38.7801 47.7157C47.959 47.7157 55.4 55.2359 55.4 64.5125Z" fill="white"/>
</g>
<g filter="url(#filter1_di_2213_9439)">
<path d="M43.8933 60.4212C43.8933 65.0595 40.1729 68.8196 35.5834 68.8196C30.9939 68.8196 27.2734 65.0595 27.2734 60.4212C27.2734 55.7829 30.9939 52.0228 35.5834 52.0228C40.1729 52.0228 43.8933 55.7829 43.8933 60.4212Z" fill="#362F24"/>
<path d="M43.8933 60.4212C43.8933 65.0595 40.1729 68.8196 35.5834 68.8196C30.9939 68.8196 27.2734 65.0595 27.2734 60.4212C27.2734 55.7829 30.9939 52.0228 35.5834 52.0228C40.1729 52.0228 43.8933 55.7829 43.8933 60.4212Z" fill="url(#paint1_linear_2213_9439)"/>
</g>
<path d="M39.6328 60.4212C39.6328 62.9188 37.6294 64.9434 35.1582 64.9434C32.6869 64.9434 30.6836 62.9188 30.6836 60.4212C30.6836 57.9236 32.6869 55.899 35.1582 55.899C37.6294 55.899 39.6328 57.9236 39.6328 60.4212Z" fill="black"/>
<path d="M34.5193 57.4063C34.5193 58.7146 33.5654 59.7751 32.3886 59.7751C31.2118 59.7751 30.2578 58.7146 30.2578 57.4063C30.2578 56.0981 31.2118 55.0375 32.3886 55.0375C33.5654 55.0375 34.5193 56.0981 34.5193 57.4063Z" fill="white"/>
</g>
<defs>
<filter id="filter0_ddiiii_2213_9439" x="-1.83984" y="11.7157" width="101.24" height="127.594" filterUnits="userSpaceOnUse" color-interpolation-filters="sRGB">
<feFlood flood-opacity="0" result="BackgroundImageFix"/>
<feColorMatrix in="SourceAlpha" type="matrix" values="0 0 0 0 0 0 0 0 0 0 0 0 0 0 0 0 0 0 127 0" result="hardAlpha"/>
<feOffset dx="30" dy="44"/>
<feGaussianBlur stdDeviation="7"/>
<feColorMatrix type="matrix" values="0 0 0 0 0.460677 0 0 0 0 0.384115 0 0 0 0 0.520833 0 0 0 0.25 0"/>
<feBlend mode="normal" in2="BackgroundImageFix" result="effect1_dropShadow_2213_9439"/>
<feColorMatrix in="SourceAlpha" type="matrix" values="0 0 0 0 0 0 0 0 0 0 0 0 0 0 0 0 0 0 127 0" result="hardAlpha"/>
<feOffset dx="10" dy="14"/>
<feGaussianBlur stdDeviation="17"/>
<feColorMatrix type="matrix" values="0 0 0 0 0.114569 0 0 0 0 0.0253472 0 0 0 0 0.304167 0 0 0 0.63 0"/>
<feBlend mode="normal" in2="effect1_dropShadow_2213_9439" result="effect2_dropShadow_2213_9439"/>
<feBlend mode="normal" in="SourceGraphic" in2="effect2_dropShadow_2213_9439" result="shape"/>
<feColorMatrix in="SourceAlpha" type="matrix" values="0 0 0 0 0 0 0 0 0 0 0 0 0 0 0 0 0 0 127 0" result="hardAlpha"/>
<feOffset dx="-24" dy="-36"/>
<feGaussianBlur stdDeviation="32"/>
<feComposite in2="hardAlpha" operator="arithmetic" k2="-1" k3="1"/>
<feColorMatrix type="matrix" values="0 0 0 0 0.145833 0 0 0 0 0.2025 0 0 0 0 0.5 0 0 0 0.07 0"/>
<feBlend mode="normal" in2="shape" result="effect3_innerShadow_2213_9439"/>
<feColorMatrix in="SourceAlpha" type="matrix" values="0 0 0 0 0 0 0 0 0 0 0 0 0 0 0 0 0 0 127 0" result="hardAlpha"/>
<feOffset dy="-16"/>
<feGaussianBlur stdDeviation="7"/>
<feComposite in2="hardAlpha" operator="arithmetic" k2="-1" k3="1"/>
<feColorMatrix type="matrix" values="0 0 0 0 0.0546875 0 0 0 0 0.161875 0 0 0 0 0.4375 0 0 0 0.21 0"/>
<feBlend mode="normal" in2="effect3_innerShadow_2213_9439" result="effect4_innerShadow_2213_9439"/>
<feColorMatrix in="SourceAlpha" type="matrix" values="0 0 0 0 0 0 0 0 0 0 0 0 0 0 0 0 0 0 127 0" result="hardAlpha"/>
<feOffset dx="-20" dy="-16"/>
<feGaussianBlur stdDeviation="7"/>
<feComposite in2="hardAlpha" operator="arithmetic" k2="-1" k3="1"/>
<feColorMatrix type="matrix" values="0 0 0 0 0.680062 0 0 0 0 0.304688 0 0 0 0 0.975 0 0 0 0.15 0"/>
<feBlend mode="normal" in2="effect4_innerShadow_2213_9439" result="effect5_innerShadow_2213_9439"/>
<feColorMatrix in="SourceAlpha" type="matrix" values="0 0 0 0 0 0 0 0 0 0 0 0 0 0 0 0 0 0 127 0" result="hardAlpha"/>
<feOffset dx="-8" dy="1"/>
<feGaussianBlur stdDeviation="4"/>
<feComposite in2="hardAlpha" operator="arithmetic" k2="-1" k3="1"/>
<feColorMatrix type="matrix" values="0 0 0 0 0.370742 0 0 0 0 0.85 0 0 0 0 0.145208 0 0 0 0.21 0"/>
<feBlend mode="normal" in2="effect5_innerShadow_2213_9439" result="effect6_innerShadow_2213_9439"/>
</filter>
<filter id="filter1_di_2213_9439" x="22.2734" y="46.0228" width="36.6191" height="36.7968" filterUnits="userSpaceOnUse" color-interpolation-filters="sRGB">
<feFlood flood-opacity="0" result="BackgroundImageFix"/>
<feColorMatrix in="SourceAlpha" type="matrix" values="0 0 0 0 0 0 0 0 0 0 0 0 0 0 0 0 0 0 127 0" result="hardAlpha"/>
<feOffset dx="5" dy="4"/>
<feGaussianBlur stdDeviation="5"/>
<feColorMatrix type="matrix" values="0 0 0 0 0 0 0 0 0 0 0 0 0 0 0 0 0 0 0.25 0"/>
<feBlend mode="normal" in2="BackgroundImageFix" result="effect1_dropShadow_2213_9439"/>
<feBlend mode="normal" in="SourceGraphic" in2="effect1_dropShadow_2213_9439" result="shape"/>
<feColorMatrix in="SourceAlpha" type="matrix" values="0 0 0 0 0 0 0 0 0 0 0 0 0 0 0 0 0 0 127 0" result="hardAlpha"/>
<feOffset dx="5" dy="6"/>
<feGaussianBlur stdDeviation="7"/>
<feComposite in2="hardAlpha" operator="arithmetic" k2="-1" k3="1"/>
<feColorMatrix type="matrix" values="0 0 0 0 0.595833 0 0 0 0 0.536747 0 0 0 0 0.422049 0 0 0 1 0"/>
<feBlend mode="normal" in2="shape" result="effect2_innerShadow_2213_9439"/>
</filter>
<linearGradient id="paint0_linear_2213_9439" x1="12.9976" y1="95.0658" x2="84.7632" y2="16.2029" gradientUnits="userSpaceOnUse">
<stop stop-color="#FB47FF"/>
<stop offset="0.140625" stop-color="#7536FC"/>
<stop offset="0.255208" stop-color="#215AEC"/>
<stop offset="0.40625" stop-color="#50F7C8"/>
<stop offset="0.59375" stop-color="#00EB86"/>
<stop offset="0.71875" stop-color="#FEDA00"/>
<stop offset="0.848958" stop-color="#FFC700"/>
<stop offset="1" stop-color="#FF3D00"/>
</linearGradient>
<linearGradient id="paint1_linear_2213_9439" x1="41.6818" y1="66.72" x2="31.6674" y2="57.6145" gradientUnits="userSpaceOnUse">
<stop stop-color="#83765C"/>
<stop offset="1" stop-color="#5F523B" stop-opacity="0"/>
</linearGradient>
</defs>
</svg>
