<svg width="20" height="20" viewBox="0 0 20 20" fill="none" xmlns="http://www.w3.org/2000/svg">
<path d="M14.5023 8.52925C15.3295 8.65648 15.9022 9.03829 16.2204 9.54738C16.5385 10.0564 16.7294 10.9473 16.7294 12.0927C16.7294 14.3834 16.0295 16.2925 14.6295 17.756C13.2296 19.2196 11.4479 19.9831 9.28438 19.9831C8.4571 19.9831 7.62988 19.8559 6.80265 19.5377C5.97542 19.2196 5.3391 18.7742 4.76639 18.2651C4.13007 17.6924 3.62103 16.9924 3.30284 16.3561C3.04832 15.6562 2.85742 14.9562 2.85742 14.2562C2.85742 13.4926 3.04832 12.8563 3.36646 12.4109C3.68465 11.9654 4.2573 11.7109 4.9573 11.52C4.83006 11.2018 4.70278 10.9473 4.63916 10.6927C4.57549 10.5018 4.51187 10.311 4.51187 10.1837C4.51187 9.8019 4.70278 9.35647 5.1482 8.91105C5.59362 8.46563 5.97542 8.27473 6.35723 8.27473C6.54813 8.27473 6.67542 8.27473 6.86632 8.33835C7.05722 8.40196 7.24813 8.46558 7.50265 8.65648C6.92994 6.74751 6.35723 5.15667 6.03904 4.07493C5.72091 2.99318 5.59362 2.29324 5.59362 1.84777C5.59362 1.27506 5.72091 0.829637 6.03904 0.511503C6.29367 0.193259 6.73909 0.00241089 7.24818 0.00241089C8.07541 0.00241089 9.15715 1.91144 10.4935 5.793C10.748 6.42937 10.8752 6.93841 11.0025 7.32022C11.1298 7.0657 11.257 6.62022 11.4479 6.11119C12.7841 2.29319 13.9296 0.384216 14.8204 0.384216C15.2659 0.384216 15.6477 0.511448 15.9658 0.829637C16.2204 1.14783 16.4112 1.59325 16.4112 2.10228C16.4112 2.48409 16.284 3.2477 15.9658 4.32945C15.584 5.41124 15.1386 6.81112 14.5023 8.52925H14.5023ZM4.70272 14.129C4.83001 14.2562 5.02091 14.5107 5.21181 14.8289C5.78452 15.6561 6.35723 16.1015 6.86632 16.1015C7.05722 16.1015 7.18446 16.0379 7.31174 15.9106C7.43898 15.7833 7.50265 15.6561 7.50265 15.5924C7.50265 15.4652 7.43897 15.2107 7.24813 14.8925C7.05722 14.5743 6.80271 14.1925 6.48452 13.8107C6.10271 13.3653 5.78452 12.9835 5.59367 12.7926C5.3391 12.6017 5.14825 12.4745 5.02091 12.4745C4.70278 12.4745 4.38459 12.6653 4.13007 12.9835C3.87555 13.3017 3.74826 13.7471 3.74826 14.1925C3.74826 14.5743 3.81193 14.9561 4.00284 15.4652C4.19374 15.9106 4.44826 16.4197 4.83006 16.8651C5.40272 17.5015 6.0391 18.0742 6.86632 18.4559C7.69355 18.8377 8.52077 19.0287 9.53885 19.0287C11.3206 19.0287 12.7841 18.3923 13.9932 17.056C15.2023 15.7197 15.7749 14.0653 15.7749 12.029C15.7749 11.3927 15.7113 10.9473 15.6477 10.5654C15.584 10.1836 15.3931 9.92913 15.2023 9.80184C14.8204 9.48365 14.1205 9.22913 13.0387 8.97462C11.957 8.7201 10.8116 8.59281 9.66614 8.59281C9.348 8.59281 9.09348 8.65643 8.9662 8.78371C8.83891 8.911 8.77529 9.1019 8.77529 9.35642C8.77529 9.99274 9.09348 10.4382 9.79342 10.6927C10.4934 10.9473 11.6388 11.1381 13.166 11.1381H13.7387C13.8659 11.1381 13.9932 11.2018 14.0568 11.2654C14.1205 11.3927 14.1841 11.5199 14.1841 11.7109C14.0568 11.8381 13.7387 12.029 13.2296 12.2199C12.7205 12.4108 12.4024 12.6017 12.1479 12.7926C11.5751 13.1744 11.1297 13.6835 10.8116 14.2562C10.4934 14.8289 10.3025 15.3379 10.3025 15.847C10.3025 16.1651 10.3661 16.4833 10.4934 16.9287C10.6207 17.3742 10.6843 17.6287 10.6843 17.6924V17.9469C10.3025 17.9469 9.98432 17.6924 9.72981 17.2469C9.47523 16.8015 9.41162 16.2288 9.41162 15.4652V15.3379C9.348 15.4015 9.28438 15.4652 9.22071 15.4652C9.1571 15.4652 9.09348 15.5288 8.9662 15.5288H8.71168C8.64801 15.5288 8.58439 15.4652 8.4571 15.4652C8.4571 15.5924 8.52077 15.6561 8.52077 15.7833V16.0379C8.52077 16.356 8.39349 16.6742 8.13897 16.9287C7.88445 17.1833 7.56626 17.3105 7.18446 17.3105C6.61175 17.3105 6.03909 17.056 5.40277 16.4833C4.83001 15.9106 4.51193 15.4015 4.51193 14.8289C4.51193 14.7016 4.51193 14.638 4.57549 14.5743C4.57549 14.2562 4.63916 14.1925 4.70278 14.1289L4.70272 14.129ZM8.83885 14.4471C8.96614 14.4471 9.15704 14.3834 9.28428 14.2562C9.41162 14.1289 9.47518 13.938 9.47518 13.8108C9.47518 13.6199 9.34795 13.238 9.09343 12.6018C8.83885 11.9654 8.52067 11.3291 8.13892 10.7564C7.8844 10.311 7.56621 9.92918 7.31169 9.73823C7.05717 9.48371 6.8026 9.42014 6.54808 9.42014C6.35718 9.42014 6.16627 9.54738 5.91175 9.8019C5.65724 10.0564 5.59357 10.2473 5.59357 10.5018C5.59357 10.6927 5.72085 11.0746 5.91175 11.52C6.16627 11.9654 6.42079 12.4109 6.8026 12.9199C7.18446 13.429 7.56632 13.8744 7.94807 14.1926C8.32987 14.3198 8.58439 14.4471 8.83891 14.4471L8.83885 14.4471ZM10.1751 7.82925L8.64795 3.56584C8.2662 2.48409 8.01163 1.72048 7.75711 1.40234C7.56621 1.08416 7.3753 0.893253 7.12079 0.893253C6.92988 0.893253 6.8026 0.956924 6.67536 1.08416C6.48446 1.27506 6.42079 1.46596 6.42079 1.72048C6.42079 2.1659 6.61169 2.8659 6.92988 3.88402C7.24807 4.90215 7.75711 6.30209 8.39349 7.95654C8.45705 7.82925 8.52072 7.76564 8.64795 7.76564C8.77524 7.70202 8.90252 7.70202 9.02976 7.70202H9.34795C9.53885 7.76564 9.79337 7.76564 10.1752 7.82925H10.1751ZM11.7023 11.9654C11.3205 11.9654 10.9388 11.9018 10.557 11.8382C10.1752 11.7745 9.85698 11.7109 9.53879 11.5836C9.66614 11.9018 9.79337 12.1563 9.92065 12.4745C10.0479 12.7927 10.1116 13.0472 10.1752 13.3653C10.3661 13.1108 10.6206 12.8563 10.8751 12.6018C11.1933 12.3472 11.4479 12.1563 11.7023 11.9654V11.9654ZM13.5477 8.27468C14.1841 6.62022 14.6295 5.22034 15.0113 4.13854C15.3294 3.0568 15.5203 2.42047 15.5203 2.16596C15.5203 1.91138 15.4567 1.72053 15.3294 1.52958C15.2022 1.40235 15.0749 1.33873 14.884 1.33873C14.6295 1.33873 14.3749 1.52958 14.1204 1.97505C13.8659 2.42047 13.5477 3.0568 13.2296 4.01131L11.8296 7.95654L13.5477 8.27473V8.27468Z" fill="#8C8C8C"/>
</svg>
