<svg width="28" height="28" viewBox="0 0 28 28" fill="none" xmlns="http://www.w3.org/2000/svg">
<g clip-path="url(#clip0_2501_12419)">
<path d="M25.6667 8.16668H17.5V5.83334H25.6667V8.16668ZM27.6803 19.8333C27.1647 21.3465 25.3132 23.3333 21.7292 23.3333C18.1428 23.3333 15.2378 21.3162 15.2378 16.7125C15.2378 12.1508 17.9503 9.80584 21.6148 9.80584C25.2105 9.80584 27.4062 11.8848 27.8857 14.9695C27.9767 15.5598 28.0128 16.3555 27.9965 17.4662H18.6317C18.7833 21.2123 22.6952 21.3302 23.9843 19.8333H27.6803ZM18.7133 15.1667H24.5058C24.3833 13.3618 23.1805 12.5778 21.616 12.5778C19.9057 12.5778 18.9595 13.4738 18.7133 15.1667ZM7.54367 23.3193H0V5.85784H8.11183C14.5005 5.95234 14.6218 12.2092 11.2852 13.9148C15.323 15.3848 15.4583 23.3193 7.54367 23.3193ZM3.5 12.8333H7.68133C10.6073 12.8333 11.0717 9.33334 7.31733 9.33334H3.5V12.8333ZM7.45617 16.3333H3.5V19.852H7.39783C10.962 19.852 10.7438 16.3333 7.45617 16.3333Z" fill="#8C8C8C"/>
</g>
<defs>
<clipPath id="clip0_2501_12419">
<rect width="28" height="28" fill="white"/>
</clipPath>
</defs>
</svg>
