<svg width="20" height="20" viewBox="0 0 20 20" fill="none" xmlns="http://www.w3.org/2000/svg">
<path d="M7.26258 13.0294C6.888 13.8955 6.01896 14.463 5.01507 14.463C3.68155 14.463 2.52783 13.3729 2.52783 11.9841C2.52783 10.6551 3.62162 9.50529 5.01507 9.50529C6.01896 9.50529 6.888 10.1175 7.26258 10.9836H9.18045C8.74593 9.07224 7.02285 7.69843 5.01507 7.69843C2.67767 7.69843 0.714844 9.60982 0.714844 11.9841C0.714844 14.3734 2.63272 16.2699 5.01507 16.2699C7.02285 16.2699 8.70098 14.8811 9.18045 13.0294H7.26258Z" fill="#8C8C8C"/>
<path d="M15.079 7.64194H14.7497C13.9864 7.68683 13.2679 7.97117 12.6393 8.40516V3.57143H10.873V11.5478V12.8797V15.8877H12.6393V15.4537C13.3128 15.9326 14.166 16.2169 15.0341 16.2169C15.558 16.2169 16.0819 16.1271 16.5608 15.9326C16.9949 15.7381 17.414 15.4986 17.8032 15.2143C18.7162 14.4511 19.285 13.2538 19.285 11.9668C19.3299 9.55747 17.414 7.64194 15.079 7.64194ZM17.5038 12.2811V12.3709C17.5038 12.4607 17.4589 12.5655 17.4589 12.6552C17.414 12.745 17.3691 12.8498 17.3092 12.9396V12.9845C17.0697 13.5083 16.6357 13.9422 16.1118 14.1817C15.9621 14.2266 15.7825 14.3313 15.6328 14.3313C15.543 14.3313 15.4831 14.3762 15.3933 14.3762H15.3484H15.064C14.9742 14.3762 14.8246 14.3762 14.7348 14.3313H14.6449C14.4055 14.2864 14.2109 14.2415 14.0163 14.1368H13.9714C13.7768 14.047 13.5822 13.8973 13.4026 13.7627C13.208 13.613 13.0733 13.4334 12.9685 13.2389L12.8189 12.9545C12.6692 12.6702 12.6243 12.326 12.6243 11.9519C12.6243 11.5778 12.7141 11.2336 12.8638 10.9043C13.2529 10.1411 13.9564 9.61733 14.8246 9.51257H15.064C16.3962 9.51257 17.5487 10.605 17.5487 11.9968C17.5038 12.0417 17.5038 12.1315 17.5038 12.2811Z" fill="#8C8C8C"/>
</svg>
