<svg width="28" height="28" viewBox="0 0 28 28" fill="none" xmlns="http://www.w3.org/2000/svg">
<path d="M22.7333 5.79225C21.1271 5.05527 19.4047 4.5123 17.6039 4.20132C17.5711 4.19531 17.5383 4.21031 17.5214 4.24031C17.2999 4.63429 17.0546 5.14826 16.8827 5.55224C14.9458 5.26227 13.0188 5.26227 11.1216 5.55224C10.9498 5.13928 10.6955 4.63429 10.473 4.24031C10.4561 4.21131 10.4233 4.19632 10.3905 4.20132C8.5907 4.51131 6.86833 5.05428 5.26117 5.79225C5.24726 5.79824 5.23533 5.80825 5.22742 5.82124C1.96045 10.702 1.06549 15.4628 1.50453 20.1646C1.50652 20.1876 1.51943 20.2096 1.53731 20.2236C3.69276 21.8065 5.78068 22.7675 7.82983 23.4045C7.86263 23.4145 7.89738 23.4025 7.91825 23.3755C8.40297 22.7135 8.83507 22.0155 9.20554 21.2815C9.2274 21.2386 9.20653 21.1876 9.16185 21.1706C8.47648 20.9106 7.82387 20.5936 7.19611 20.2336C7.14645 20.2046 7.14248 20.1336 7.18816 20.0996C7.32026 20.0006 7.4524 19.8976 7.57854 19.7936C7.60137 19.7746 7.63317 19.7706 7.66 19.7826C11.7841 21.6655 16.249 21.6655 20.3245 19.7826C20.3513 19.7696 20.3831 19.7736 20.4069 19.7926C20.5331 19.8966 20.6652 20.0006 20.7983 20.0996C20.844 20.1336 20.841 20.2046 20.7914 20.2336C20.1636 20.6006 19.511 20.9106 18.8246 21.1696C18.7799 21.1866 18.7601 21.2386 18.7819 21.2815C19.1604 22.0145 19.5924 22.7125 20.0682 23.3745C20.0881 23.4025 20.1238 23.4145 20.1566 23.4045C22.2157 22.7675 24.3036 21.8065 26.4591 20.2236C26.478 20.2096 26.4899 20.1886 26.4919 20.1656C27.0173 14.7298 25.6118 10.0081 22.766 5.82224C22.7591 5.80825 22.7472 5.79824 22.7333 5.79225ZM9.82141 17.3017C8.57976 17.3017 7.55668 16.1618 7.55668 14.7618C7.55668 13.3619 8.55992 12.222 9.82141 12.222C11.0928 12.222 12.106 13.3719 12.0861 14.7618C12.0861 16.1618 11.0829 17.3017 9.82141 17.3017ZM18.1949 17.3017C16.9533 17.3017 15.9302 16.1618 15.9302 14.7618C15.9302 13.3619 16.9334 12.222 18.1949 12.222C19.4663 12.222 20.4795 13.3719 20.4596 14.7618C20.4596 16.1618 19.4663 17.3017 18.1949 17.3017Z" fill="#7673FE"/>
</svg>
