<svg width="28" height="28" viewBox="0 0 28 28" fill="none" xmlns="http://www.w3.org/2000/svg">
<path d="M23.6702 5.32155L23.4877 5.12273C21.1138 2.5873 17.7391 1 14 1C12.5123 1 11.0825 1.25194 9.75004 1.71413L9.61467 1.76189C5.26296 3.32605 1.97959 7.14891 1.18547 11.8098C1.18451 11.8143 1.18313 11.8185 1.18226 11.8229C1.1794 11.8378 1.17827 11.8525 1.17593 11.8673C1.06084 12.5615 1 13.2737 1 14C1 17.0992 2.09079 19.9481 3.90775 22.1844C3.90862 22.1857 4.05907 22.3671 4.05907 22.3671C6.4457 25.198 10.0161 27 14 27C15.5055 27 16.9517 26.7419 18.2976 26.2691C18.3331 26.2581 18.3679 26.246 18.402 26.2322C22.672 24.6909 25.9101 20.9739 26.772 16.4261C26.7742 16.415 26.7765 16.404 26.7784 16.3929C26.9233 15.6169 27 14.8174 27 14C27 10.6677 25.7392 7.62463 23.6702 5.32155ZM14 3.6C16.6737 3.6 19.1147 4.61443 20.9591 6.27826C19.6675 8.04773 17.8616 9.21132 15.8836 9.96185C15.5538 9.19191 15.2245 8.49407 14.9088 7.87206C13.9935 6.06922 13.0949 4.68784 12.3942 3.72402C12.9178 3.64255 13.4539 3.6 14 3.6ZM9.73045 4.51728C10.5059 5.48639 11.9769 7.5442 13.3659 10.6949C9.71858 11.4773 5.97848 11.2179 4.04512 10.9884C4.91976 8.1032 7.01631 5.74413 9.73045 4.51728ZM3.6 14C3.6 13.8522 3.6039 13.7054 3.60997 13.5591C4.64607 13.6887 6.18241 13.8294 7.97372 13.8294C8.84108 13.8294 9.76841 13.7963 10.7268 13.7131C12.0042 13.6022 13.2084 13.4105 14.3377 13.143C14.586 13.8419 14.8247 14.5798 15.0483 15.3582C13.8768 15.6989 12.667 16.1246 11.4198 16.6361C8.73101 17.7385 6.53861 18.9724 5.3147 19.7138C4.23154 18.0727 3.6 16.1089 3.6 14ZM14 24.4C11.3243 24.4 8.88164 23.3841 7.03677 21.718C8.77166 20.6986 12.0287 18.9611 15.6846 17.8865C16.0922 19.7621 16.4009 21.8278 16.557 24.0816C15.7388 24.2892 14.8821 24.4 14 24.4ZM19.0854 23.0689C18.9028 20.9729 18.5944 19.0404 18.2078 17.2761C20.1219 16.9193 22.0732 16.8131 23.9162 17.1367C23.113 19.6702 21.3639 21.7862 19.0854 23.0689ZM24.3836 14.5781C22.32 14.211 20.0442 14.2675 17.5729 14.7446C17.3358 13.9099 17.0838 13.123 16.8241 12.3829C19.2642 11.4493 21.2388 10.0743 22.6878 8.29023C23.7695 9.93031 24.4 11.8928 24.4 14C24.4 14.194 24.3943 14.3866 24.3836 14.5781Z" fill="#8C8C8C"/>
</svg>
