<svg width="20" height="20" viewBox="0 0 20 20" fill="red" xmlns="http://www.w3.org/2000/svg">
<path d="M9.99503 0C4.47001 0 0 4.47502 0 10C0 15.525 4.47001 20 9.99503 20C15.5201 20 20 15.525 20 10C20 4.47502 15.52 0 9.99503 0ZM10 2.03499C10.835 3.23499 11.485 4.56999 11.91 6.00001H8.09003C8.515 4.56999 9.16501 3.23499 10 2.03499ZM2.25999 12C2.09499 11.36 1.99997 10.69 1.99997 10C1.99997 9.31 2.09499 8.64001 2.25999 7.99998H5.63499C5.55498 8.65497 5.49999 9.31998 5.49999 10C5.49999 10.68 5.55498 11.345 5.64001 12H2.25999ZM3.075 14H6.02499C6.34998 15.2501 6.805 16.4501 7.405 17.565C5.56501 16.935 4.03501 15.655 3.075 14ZM6.02499 6.00001H3.075C4.03501 4.34499 5.56501 3.06502 7.405 2.43502C6.805 3.54999 6.35003 4.74999 6.02499 6.00001ZM10 17.965C9.16998 16.765 8.52001 15.43 8.08998 14H11.91C11.48 15.43 10.83 16.765 10 17.965ZM12.34 12H7.66C7.56498 11.345 7.50001 10.68 7.50001 10C7.50001 9.31998 7.56503 8.65501 7.66 7.99998H12.34C12.435 8.65497 12.5 9.31998 12.5 10C12.5 10.68 12.435 11.345 12.34 12ZM16.92 6.00001H13.97C13.6451 4.74999 13.19 3.54999 12.59 2.43999C14.43 3.06999 15.96 4.34499 16.92 6.00001ZM12.595 17.56C13.195 16.445 13.65 15.25 13.975 14H16.925C15.96 15.655 14.43 16.93 12.595 17.56ZM14.36 12C14.4401 11.345 14.5001 10.68 14.5001 10C14.5001 9.31998 14.4451 8.65501 14.36 7.99998H17.735C17.9 8.63997 18 9.31 18 10C18 10.69 17.905 11.36 17.735 12H14.36Z" fill="white"/>
</svg>
