<svg width="28" height="28" viewBox="0 0 28 28" fill="none" xmlns="http://www.w3.org/2000/svg">
<path d="M14.3886 5.91255C11.6358 6.1739 9.5222 7.60852 8.10634 10.1765C6.9228 12.3233 5.74346 12.7513 5.61494 14C5.59624 14.1956 4.8344 15.9207 4.91494 16.1C4.99548 16.2793 5.61494 16.8 5.61494 17.5C5.61494 18.2722 5.37791 18.1138 5.61498 19.6C5.91768 21.498 4.91494 22.4 4.21494 22.4C3.98661 22.6901 6.32563 25.2225 6.05906 25.4779V25.7035C6.05909 25.7999 6.09739 25.8924 6.16554 25.9607C6.2337 26.029 6.32616 26.0674 6.42263 26.0676H21.0813C21.2276 26.0679 21.3698 26.0195 21.4854 25.9299C21.6011 25.8404 21.6835 25.7148 21.7199 25.5731C21.966 24.6084 21.9205 22.5552 18.8488 19.6441C18.638 19.4444 18.4257 19.2496 18.2205 19.0611C17.078 18.0125 16.0839 17.0993 15.8525 15.8707C15.1547 15.7462 14.5064 15.4265 13.9828 14.9488C13.4979 14.5063 13.1343 13.9471 12.9267 13.3243C12.9169 13.2898 12.914 13.2537 12.9182 13.218C12.9224 13.1823 12.9336 13.1478 12.9511 13.1165C12.9686 13.0851 12.9922 13.0576 13.0204 13.0353C13.0485 13.0131 13.0808 12.9966 13.1154 12.9868C13.1499 12.977 13.1861 12.9742 13.2217 12.9784C13.2574 12.9826 13.2919 12.9937 13.3232 13.0113C13.3546 13.0288 13.3822 13.0523 13.4044 13.0805C13.4267 13.1087 13.4432 13.141 13.4529 13.1755C13.4879 13.2969 14.3603 16.1539 18.1928 15.2238C18.4292 15.1675 18.6761 15.173 18.9099 15.2395C19.1436 15.3061 19.3563 15.4316 19.5276 15.604C20.1991 16.2817 20.8047 16.6034 21.1888 16.4874C22.6325 16.0504 23.5575 14.8964 23.9108 14.0409C24.1265 13.5188 24.169 13.0469 24.0246 12.7783C23.8255 12.4083 23.4634 12.1889 23.1947 12.07C22.7216 11.8584 22.2885 11.5667 21.9146 11.2078L17.7584 7.2571C17.4621 6.97383 17.2638 6.6035 17.1923 6.19988C16.8277 4.1223 15.9169 3.17096 15.5243 2.84753C14.5763 4.15123 14.6353 5.61188 14.636 5.62686C14.6395 5.69717 14.6157 5.76611 14.5696 5.81933C14.5235 5.87254 14.4587 5.90593 14.3886 5.91255Z" fill="black"/>
<path d="M22.9598 1.81995L19.8798 8.39995L18.3398 6.85995L22.9598 1.81995Z" fill="black"/>
</svg>
