<svg width="20" height="20" viewBox="0 0 20 20" fill="none" xmlns="http://www.w3.org/2000/svg">
<path d="M10.0031 5.37849C7.45087 5.37849 5.38462 7.44699 5.38462 9.99699C5.38462 12.5492 7.45312 14.6155 10.0031 14.6155C12.5554 14.6155 14.6216 12.547 14.6216 9.99699C14.6216 7.44474 12.5531 5.37849 10.0031 5.37849ZM10.0031 12.9947C8.34637 12.9947 7.00537 11.653 7.00537 9.99699C7.00537 8.34099 8.34712 6.99924 10.0031 6.99924C11.6591 6.99924 13.0009 8.34099 13.0009 9.99699C13.0016 11.653 11.6599 12.9947 10.0031 12.9947Z" fill="#8C8C8C"/>
<path d="M13.7112 1.05705C12.0552 0.979801 7.95342 0.983551 6.29592 1.05705C4.83942 1.1253 3.55467 1.47705 2.51892 2.5128C0.78792 4.2438 1.00917 6.57631 1.00917 9.99706C1.00917 13.4981 0.814171 15.7766 2.51892 17.4813C4.25667 19.2183 6.62292 18.9911 10.0032 18.9911C13.4712 18.9911 14.6682 18.9933 15.8944 18.5186C17.5617 17.8713 18.8202 16.3811 18.9432 13.7043C19.0212 12.0476 19.0167 7.94656 18.9432 6.28905C18.7947 3.1293 17.0989 1.21305 13.7112 1.05705ZM16.3324 16.3361C15.1977 17.4708 13.6234 17.3696 9.98142 17.3696C6.23142 17.3696 4.72767 17.4251 3.63042 16.3248C2.36667 15.0671 2.59542 13.0473 2.59542 9.98506C2.59542 5.8413 2.17017 2.85705 6.32892 2.64405C7.28442 2.6103 7.56567 2.59905 9.97092 2.59905L10.0047 2.62155C14.0014 2.62155 17.1372 2.20305 17.3254 6.36105C17.3682 7.30981 17.3779 7.59481 17.3779 9.99631C17.3772 13.7028 17.4477 15.2156 16.3324 16.3361Z" fill="#8C8C8C"/>
<path d="M14.8047 6.27551C15.4007 6.27551 15.8839 5.79231 15.8839 5.19626C15.8839 4.60021 15.4007 4.11701 14.8047 4.11701C14.2086 4.11701 13.7254 4.60021 13.7254 5.19626C13.7254 5.79231 14.2086 6.27551 14.8047 6.27551Z" fill="#8C8C8C"/>
</svg>
