<svg width="20" height="20" viewBox="0 0 20 20" fill="none" xmlns="http://www.w3.org/2000/svg">
<path d="M20 3.92375C19.2563 4.25 18.4637 4.46625 17.6375 4.57125C18.4875 4.06375 19.1363 3.26625 19.4412 2.305C18.6488 2.7775 17.7738 3.11125 16.8412 3.2975C16.0887 2.49625 15.0162 2 13.8462 2C11.5763 2 9.74875 3.8425 9.74875 6.10125C9.74875 6.42625 9.77625 6.73875 9.84375 7.03625C6.435 6.87 3.41875 5.23625 1.3925 2.7475C1.03875 3.36125 0.83125 4.06375 0.83125 4.82C0.83125 6.24 1.5625 7.49875 2.6525 8.2275C1.99375 8.215 1.3475 8.02375 0.8 7.7225C0.8 7.735 0.8 7.75125 0.8 7.7675C0.8 9.76 2.22125 11.415 4.085 11.7962C3.75125 11.8875 3.3875 11.9312 3.01 11.9312C2.7475 11.9312 2.4825 11.9163 2.23375 11.8612C2.765 13.485 4.2725 14.6788 6.065 14.7175C4.67 15.8088 2.89875 16.4662 0.98125 16.4662C0.645 16.4662 0.3225 16.4513 0 16.41C1.81625 17.5813 3.96875 18.25 6.29 18.25C13.835 18.25 17.96 12 17.96 6.5825C17.96 6.40125 17.9538 6.22625 17.945 6.0525C18.7588 5.475 19.4425 4.75375 20 3.92375Z" fill="#8C8C8C"/>
</svg>
