<?xml version="1.0" standalone="no"?>
<!DOCTYPE svg PUBLIC "-//W3C//DTD SVG 20010904//EN"
 "http://www.w3.org/TR/2001/REC-SVG-20010904/DTD/svg10.dtd">
<svg version="1.0" xmlns="http://www.w3.org/2000/svg"
 width="712.000000pt" height="712.000000pt" viewBox="0 0 712.000000 712.000000"
 preserveAspectRatio="xMidYMid meet">
<metadata>
Created by potrace 1.14, written by Peter Selinger 2001-2017
</metadata>
<g transform="translate(0.000000,712.000000) scale(0.100000,-0.100000)"
fill="#000000" stroke="none">
<path d="M6497 7063 c-28 -27 -74 -69 -102 -95 -27 -25 -60 -55 -71 -65 -12
-10 -72 -65 -134 -123 -62 -58 -125 -116 -140 -130 -16 -14 -70 -64 -122 -111
-51 -47 -120 -110 -152 -140 -32 -30 -80 -74 -107 -99 -47 -45 -207 -193 -258
-239 -25 -23 -197 -182 -251 -231 -15 -14 -75 -70 -134 -124 -59 -55 -115
-107 -125 -115 -20 -18 -209 -192 -277 -256 -23 -22 -78 -72 -121 -111 -43
-40 -99 -91 -125 -115 -26 -24 -68 -64 -95 -88 -26 -24 -95 -87 -152 -140 -57
-53 -118 -109 -135 -124 -17 -16 -56 -52 -86 -80 -31 -29 -107 -99 -170 -157
-63 -58 -130 -120 -150 -139 -19 -18 -68 -63 -109 -100 -40 -36 -90 -82 -110
-101 -20 -19 -88 -82 -151 -140 -63 -58 -139 -128 -169 -156 -79 -73 -106 -98
-211 -194 -51 -47 -105 -96 -120 -110 -130 -120 -231 -213 -261 -241 -20 -19
-82 -77 -139 -129 -57 -52 -118 -108 -135 -125 -18 -16 -57 -52 -86 -79 -30
-27 -106 -97 -169 -155 -116 -108 -196 -182 -261 -242 -21 -19 -81 -74 -135
-124 -54 -49 -115 -106 -135 -125 -21 -19 -77 -71 -125 -115 -48 -44 -107 -98
-130 -120 -23 -22 -62 -58 -86 -80 -25 -22 -98 -89 -163 -150 -139 -129 -145
-135 -264 -244 -73 -67 -90 -88 -85 -104 3 -11 7 -25 8 -31 7 -33 40 -131 52
-154 8 -15 14 -30 14 -35 0 -7 84 -178 111 -227 86 -152 239 -342 400 -497 68
-65 219 -190 267 -221 15 -9 29 -19 32 -23 24 -30 400 -229 432 -229 8 0 18
-4 23 -9 6 -4 48 -20 95 -34 47 -14 96 -29 110 -33 126 -38 461 -66 558 -46
28 6 38 17 65 67 17 33 34 62 37 65 3 3 18 30 34 60 15 30 37 73 50 95 12 22
46 85 75 140 30 55 57 105 61 110 4 6 26 46 50 90 24 44 56 105 73 135 17 30
45 82 62 115 18 33 56 103 85 155 56 100 81 146 150 275 24 44 63 115 87 158
24 43 64 115 88 160 23 45 116 215 205 377 141 257 192 351 276 510 11 19 22
37 27 38 4 2 7 8 7 12 0 5 25 56 56 112 61 111 114 209 148 273 11 22 23 42
26 45 3 3 12 18 20 35 14 28 46 87 132 245 20 36 50 92 68 125 18 33 43 78 55
100 37 67 84 154 163 300 42 77 80 142 84 143 5 2 8 10 8 17 0 8 13 36 28 62
16 26 48 84 72 128 67 125 101 187 125 230 12 22 40 72 61 110 20 39 50 93 65
120 15 28 38 70 51 95 13 25 25 47 29 50 3 3 11 20 18 38 8 17 17 32 22 32 5
0 9 7 9 15 0 8 14 37 30 63 17 27 30 54 30 59 0 6 7 16 15 23 8 7 12 16 9 21
-3 5 -2 9 3 9 4 0 13 10 19 23 30 61 109 205 126 230 11 15 16 27 12 27 -3 0
-1 6 5 13 12 15 71 120 101 182 11 22 28 54 38 70 10 17 80 145 157 285 76
140 149 275 163 300 14 25 38 70 54 100 16 30 33 62 38 70 5 8 33 58 61 110
28 52 63 115 77 140 15 25 27 51 28 59 2 8 7 17 11 20 5 3 21 29 35 56 15 28
45 84 68 125 22 41 46 87 53 103 6 15 15 27 19 27 4 0 8 6 8 13 0 7 11 29 25
50 14 20 23 37 19 37 -4 0 3 11 16 25 40 42 12 28 -43 -22z"/>
</g>
</svg>
